<?xml version="1.0" encoding="UTF-8" standalone="no"?>
<!DOCTYPE svg PUBLIC "-//W3C//DTD SVG 1.1//EN"
 "http://www.w3.org/Graphics/SVG/1.1/DTD/svg11.dtd">
<!-- Generated by graphviz version 2.36.0 (20140111.2315)
 -->
<!-- Title: models_diagram Pages: 1 -->
<svg width="2038pt" height="498pt"
 viewBox="0.00 0.00 2038.00 498.00" xmlns="http://www.w3.org/2000/svg" xmlns:xlink="http://www.w3.org/1999/xlink">
<g id="graph0" class="graph" transform="scale(1 1) rotate(0) translate(4 494)">
<title>models_diagram</title>
<polygon fill="white" stroke="none" points="-4,4 -4,-494 2034,-494 2034,4 -4,4"/>
<!-- _diagram_info -->
<g id="node1" class="node"><title>_diagram_info</title>
<text text-anchor="start" x="8" y="-475.6" font-family="Times,serif" font-size="13.00">Models diagram</text>
<text text-anchor="start" x="8" y="-461.6" font-family="Times,serif" font-size="13.00">Date: Jan 18 2015 &#45; 15:57</text>
<text text-anchor="start" x="8" y="-447.6" font-family="Times,serif" font-size="13.00">Migration version: 104</text>
<text text-anchor="start" x="8" y="-433.6" font-family="Times,serif" font-size="13.00">Generated by RailRoady 1.3.0</text>
<text text-anchor="start" x="8" y="-419.6" font-family="Times,serif" font-size="13.00">http://railroady.prestonlee.com</text>
</g>
<!-- Right -->
<g id="node2" class="node"><title>Right</title>
<ellipse fill="none" stroke="black" cx="231" cy="-451" rx="30.3206" ry="18"/>
<text text-anchor="middle" x="231" y="-447.3" font-family="Times,serif" font-size="14.00">Right</text>
</g>
<!-- Profile -->
<g id="node18" class="node"><title>Profile</title>
<ellipse fill="none" stroke="black" cx="231" cy="-342" rx="34.1708" ry="18"/>
<text text-anchor="middle" x="231" y="-338.3" font-family="Times,serif" font-size="14.00">Profile</text>
</g>
<!-- Right&#45;&gt;Profile -->
<g id="edge1" class="edge"><title>Right&#45;&gt;Profile</title>
<path fill="none" stroke="#140eaa" d="M231,-422.611C231,-406.613 231,-386.489 231,-370.476"/>
<polygon fill="#140eaa" stroke="#140eaa" points="231,-422.809 226.5,-432.809 231,-427.809 231,-432.809 231,-432.809 231,-432.809 231,-427.809 235.5,-432.809 231,-422.809 231,-422.809"/>
<polygon fill="#140eaa" stroke="#140eaa" points="231,-370.149 235.5,-360.149 231,-365.149 231,-360.149 231,-360.149 231,-360.149 231,-365.149 226.5,-360.149 231,-370.149 231,-370.149"/>
</g>
<!-- Ping -->
<g id="node3" class="node"><title>Ping</title>
<ellipse fill="none" stroke="black" cx="310" cy="-342" rx="27" ry="18"/>
<text text-anchor="middle" x="310" y="-338.3" font-family="Times,serif" font-size="14.00">Ping</text>
</g>
<!-- Resource -->
<g id="node4" class="node"><title>Resource</title>
<ellipse fill="none" stroke="black" cx="399" cy="-342" rx="43.319" ry="18"/>
<text text-anchor="middle" x="399" y="-338.3" font-family="Times,serif" font-size="14.00">Resource</text>
</g>
<!-- NotificationMailer -->
<g id="node5" class="node"><title>NotificationMailer</title>
<polygon fill="none" stroke="black" points="1034.25,-469 915.75,-469 915.75,-433 1034.25,-433 1034.25,-469"/>
<text text-anchor="middle" x="975" y="-447.3" font-family="Times,serif" font-size="14.00">NotificationMailer</text>
</g>
<!-- PageCache -->
<g id="node6" class="node"><title>PageCache</title>
<polygon fill="none" stroke="black" points="1129.25,-469 1052.75,-469 1052.75,-433 1129.25,-433 1129.25,-469"/>
<text text-anchor="middle" x="1091" y="-447.3" font-family="Times,serif" font-size="14.00">PageCache</text>
</g>
<!-- EmailNotifier -->
<g id="node7" class="node"><title>EmailNotifier</title>
<polygon fill="none" stroke="black" points="1240,-469 1148,-469 1148,-433 1240,-433 1240,-469"/>
<text text-anchor="middle" x="1194" y="-447.3" font-family="Times,serif" font-size="14.00">EmailNotifier</text>
</g>
<!-- PostType -->
<g id="node8" class="node"><title>PostType</title>
<ellipse fill="none" stroke="black" cx="1302" cy="-451" rx="44.2946" ry="18"/>
<text text-anchor="middle" x="1302" y="-447.3" font-family="Times,serif" font-size="14.00">PostType</text>
</g>
<!-- Redirect -->
<g id="node9" class="node"><title>Redirect</title>
<ellipse fill="none" stroke="black" cx="671" cy="-268" rx="39.9464" ry="18"/>
<text text-anchor="middle" x="671" y="-264.3" font-family="Times,serif" font-size="14.00">Redirect</text>
</g>
<!-- Redirection -->
<g id="node14" class="node"><title>Redirection</title>
<ellipse fill="none" stroke="black" cx="581" cy="-92" rx="51.4931" ry="18"/>
<text text-anchor="middle" x="581" y="-88.3" font-family="Times,serif" font-size="14.00">Redirection</text>
</g>
<!-- Redirect&#45;&gt;Redirection -->
<g id="edge2" class="edge"><title>Redirect&#45;&gt;Redirection</title>
<path fill="none" stroke="#cbb3bc" d="M653.301,-244.124C650.43,-240.148 647.561,-236.003 645,-232 620.991,-194.472 614.418,-185.005 597,-144 593.771,-136.398 590.853,-127.918 588.421,-120.089"/>
<ellipse fill="none" stroke="#cbb3bc" cx="655.706" cy="-247.383" rx="4.00002" ry="4.00002"/>
<polygon fill="#cbb3bc" stroke="#cbb3bc" points="588.361,-119.888 589.831,-109.021 586.939,-115.094 585.517,-110.301 585.517,-110.301 585.517,-110.301 586.939,-115.094 581.203,-111.58 588.361,-119.888 588.361,-119.888"/>
</g>
<!-- Content -->
<g id="node19" class="node"><title>Content</title>
<ellipse fill="none" stroke="black" cx="829" cy="-180" rx="38.0212" ry="18"/>
<text text-anchor="middle" x="829" y="-176.3" font-family="Times,serif" font-size="14.00">Content</text>
</g>
<!-- Redirect&#45;&gt;Content -->
<g id="edge3" class="edge"><title>Redirect&#45;&gt;Content</title>
<path fill="none" stroke="#be44bc" d="M690.07,-242.999C698.664,-233.487 709.469,-223.139 721,-216 740.211,-204.107 763.872,-195.847 784.146,-190.351"/>
<polygon fill="#be44bc" stroke="#be44bc" points="689.947,-243.142 680,-247.759 686.675,-246.923 683.403,-250.704 683.403,-250.704 683.403,-250.704 686.675,-246.923 686.806,-253.648 689.947,-243.142 689.947,-243.142"/>
<polygon fill="#be44bc" stroke="#be44bc" points="784.408,-190.284 795.213,-192.157 789.251,-189.041 794.094,-187.798 794.094,-187.798 794.094,-187.798 789.251,-189.041 792.976,-183.439 784.408,-190.284 784.408,-190.284"/>
</g>
<!-- ConfigManager -->
<g id="node10" class="node"><title>ConfigManager</title>
<polygon fill="none" stroke="black" stroke-dasharray="1,5" points="1467.25,-469 1364.75,-469 1364.75,-433 1467.25,-433 1467.25,-469"/>
<text text-anchor="middle" x="1416" y="-447.3" font-family="Times,serif" font-size="14.00">ConfigManager</text>
</g>
<!-- Notification -->
<g id="node11" class="node"><title>Notification</title>
<ellipse fill="none" stroke="black" cx="996" cy="-18" rx="52.9443" ry="18"/>
<text text-anchor="middle" x="996" y="-14.3" font-family="Times,serif" font-size="14.00">Notification</text>
</g>
<!-- Article -->
<g id="node12" class="node"><title>Article</title>
<ellipse fill="none" stroke="black" cx="862" cy="-451" rx="35.1455" ry="18"/>
<text text-anchor="middle" x="862" y="-447.3" font-family="Times,serif" font-size="14.00">Article</text>
</g>
<!-- Article&#45;&gt;Ping -->
<g id="edge9" class="edge"><title>Article&#45;&gt;Ping</title>
<path fill="none" stroke="#31aab6" d="M818.953,-448.137C740.306,-443.921 568.635,-430.952 429,-394 397.298,-385.611 363.079,-370.219 339.509,-358.531"/>
<ellipse fill="none" stroke="#31aab6" cx="823.178" cy="-448.356" rx="4" ry="4"/>
<polygon fill="#31aab6" stroke="#31aab6" points="339.336,-358.443 332.435,-349.921 334.872,-356.191 330.408,-353.939 330.408,-353.939 330.408,-353.939 334.872,-356.191 328.381,-357.956 339.336,-358.443 339.336,-358.443"/>
</g>
<!-- Article&#45;&gt;Resource -->
<g id="edge12" class="edge"><title>Article&#45;&gt;Resource</title>
<path fill="none" stroke="#4eaa2d" d="M819.316,-447.214C728.873,-440.809 520.994,-423.297 457,-394 443.01,-387.595 429.908,-376.685 419.71,-366.596"/>
<ellipse fill="none" stroke="#4eaa2d" cx="823.445" cy="-447.502" rx="4" ry="4"/>
<polygon fill="#4eaa2d" stroke="#4eaa2d" points="419.451,-366.327 415.749,-356.005 415.98,-362.728 412.51,-359.128 412.51,-359.128 412.51,-359.128 415.98,-362.728 409.27,-362.252 419.451,-366.327 419.451,-366.327"/>
</g>
<!-- Article&#45;&gt;Redirect -->
<g id="edge7" class="edge"><title>Article&#45;&gt;Redirect</title>
<path fill="none" stroke="#23ec65" d="M816.911,-448.509C776.461,-444.59 718.728,-432.116 687,-394 664.387,-366.835 663.943,-324.174 666.693,-296.395"/>
<polygon fill="#23ec65" stroke="#23ec65" points="817.088,-448.523 826.682,-453.834 822.071,-448.936 827.053,-449.349 827.053,-449.349 827.053,-449.349 822.071,-448.936 827.425,-444.864 817.088,-448.523 817.088,-448.523"/>
<polygon fill="#23ec65" stroke="#23ec65" points="666.726,-296.119 672.381,-286.724 667.319,-291.154 667.913,-286.19 667.913,-286.19 667.913,-286.19 667.319,-291.154 663.444,-285.655 666.726,-296.119 666.726,-296.119"/>
</g>
<!-- Article&#45;&gt;Notification -->
<g id="edge4" class="edge"><title>Article&#45;&gt;Notification</title>
<path fill="none" stroke="#30bec2" d="M881.455,-428.389C888.508,-421.962 896.979,-415.664 906,-412 968.701,-386.537 1142.88,-402.657 1210,-394 1286.42,-384.144 1304.46,-375.198 1380,-360 1417.34,-352.487 1464,-381.09 1464,-343 1464,-343 1464,-343 1464,-91 1464,-50.4305 1185.72,-29.6162 1058.33,-22.2132"/>
<ellipse fill="none" stroke="#30bec2" cx="878.273" cy="-431.473" rx="4.00002" ry="4.00002"/>
<polygon fill="#30bec2" stroke="#30bec2" points="1058.31,-22.2118 1048.58,-17.1485 1053.32,-21.9265 1048.32,-21.6411 1048.32,-21.6411 1048.32,-21.6411 1053.32,-21.9265 1048.07,-26.1338 1058.31,-22.2118 1058.31,-22.2118"/>
</g>
<!-- Trigger -->
<g id="node13" class="node"><title>Trigger</title>
<ellipse fill="none" stroke="black" cx="1214" cy="-92" rx="37.0701" ry="18"/>
<text text-anchor="middle" x="1214" y="-88.3" font-family="Times,serif" font-size="14.00">Trigger</text>
</g>
<!-- Article&#45;&gt;Trigger -->
<g id="edge8" class="edge"><title>Article&#45;&gt;Trigger</title>
<path fill="none" stroke="#d0de17" d="M881.898,-428.336C888.89,-422.031 897.211,-415.818 906,-412 974.469,-382.252 998.843,-402.58 1073,-394 1195.34,-379.845 1246.9,-430.321 1348,-360 1401.74,-322.619 1399.52,-278.168 1379,-216 1360.3,-159.341 1295.79,-124.263 1253.19,-106.72"/>
<ellipse fill="none" stroke="#d0de17" cx="878.768" cy="-431.325" rx="4.00002" ry="4.00002"/>
<polygon fill="#d0de17" stroke="#d0de17" points="1252.96,-106.628 1245.32,-98.755 1248.31,-104.783 1243.66,-102.937 1243.66,-102.937 1243.66,-102.937 1248.31,-104.783 1242,-107.12 1252.96,-106.628 1252.96,-106.628"/>
</g>
<!-- Article&#45;&gt;Redirection -->
<g id="edge6" class="edge"><title>Article&#45;&gt;Redirection</title>
<path fill="none" stroke="#02f53e" d="M819.119,-448.328C735.259,-444.261 553.494,-431.284 505,-394 418.255,-327.307 516.889,-177.095 561.433,-117.774"/>
<ellipse fill="none" stroke="#02f53e" cx="823.166" cy="-448.517" rx="4" ry="4"/>
<polygon fill="#02f53e" stroke="#02f53e" points="561.523,-117.655 571.164,-112.429 564.554,-113.678 567.584,-109.701 567.584,-109.701 567.584,-109.701 564.554,-113.678 564.005,-106.974 561.523,-117.655 561.523,-117.655"/>
</g>
<!-- Tag -->
<g id="node15" class="node"><title>Tag</title>
<ellipse fill="none" stroke="black" cx="1519" cy="-342" rx="27" ry="18"/>
<text text-anchor="middle" x="1519" y="-338.3" font-family="Times,serif" font-size="14.00">Tag</text>
</g>
<!-- Article&#45;&gt;Tag -->
<g id="edge19" class="edge"><title>Article&#45;&gt;Tag</title>
<path fill="none" stroke="#40be89" d="M882.707,-427.064C889.487,-421.049 897.484,-415.322 906,-412 965.24,-388.893 1421.1,-422.375 1478,-394 1489.32,-388.354 1498.55,-377.967 1505.37,-368.034"/>
<polygon fill="#40be89" stroke="#40be89" points="882.562,-427.203 872.232,-430.884 878.956,-430.667 875.35,-434.13 875.35,-434.13 875.35,-434.13 878.956,-430.667 878.467,-437.376 882.562,-427.203 882.562,-427.203"/>
<polygon fill="#40be89" stroke="#40be89" points="1505.39,-368.005 1514.53,-361.956 1508.06,-363.779 1510.73,-359.552 1510.73,-359.552 1510.73,-359.552 1508.06,-363.779 1506.93,-357.148 1505.39,-368.005 1505.39,-368.005"/>
</g>
<!-- Trackback -->
<g id="node16" class="node"><title>Trackback</title>
<ellipse fill="none" stroke="black" cx="547" cy="-342" rx="48.1437" ry="18"/>
<text text-anchor="middle" x="547" y="-338.3" font-family="Times,serif" font-size="14.00">Trackback</text>
</g>
<!-- Article&#45;&gt;Trackback -->
<g id="edge10" class="edge"><title>Article&#45;&gt;Trackback</title>
<path fill="none" stroke="#615a8f" d="M818.808,-449.759C734.093,-448.271 550.979,-439.712 512,-394 504.413,-385.102 509.612,-374.547 518.094,-365.353"/>
<ellipse fill="none" stroke="#615a8f" cx="822.935" cy="-449.823" rx="4" ry="4"/>
<polygon fill="#615a8f" stroke="#615a8f" points="518.2,-365.252 528.532,-361.578 521.809,-361.791 525.418,-358.33 525.418,-358.33 525.418,-358.33 521.809,-361.791 522.303,-355.082 518.2,-365.252 518.2,-365.252"/>
</g>
<!-- Article&#45;&gt;Trackback -->
<g id="edge17" class="edge"><title>Article&#45;&gt;Trackback</title>
<path fill="none" stroke="#a30898" d="M818.906,-449.292C738.003,-446.952 568.251,-436.921 532,-394 526.052,-386.958 527.029,-377.648 530.431,-368.912"/>
<ellipse fill="none" stroke="#a30898" cx="822.92" cy="-449.399" rx="4" ry="4"/>
<polygon fill="#a30898" stroke="#a30898" points="530.493,-368.786 538.911,-361.758 532.678,-364.289 534.864,-359.792 534.864,-359.792 534.864,-359.792 532.678,-364.289 530.816,-357.825 530.493,-368.786 530.493,-368.786"/>
<text text-anchor="middle" x="591" y="-382.3" font-family="Times,serif" font-size="14.00">published_trackbacks</text>
</g>
<!-- Comment -->
<g id="node17" class="node"><title>Comment</title>
<ellipse fill="none" stroke="black" cx="739" cy="-342" rx="46.2191" ry="18"/>
<text text-anchor="middle" x="739" y="-338.3" font-family="Times,serif" font-size="14.00">Comment</text>
</g>
<!-- Article&#45;&gt;Comment -->
<g id="edge15" class="edge"><title>Article&#45;&gt;Comment</title>
<path fill="none" stroke="#85a383" d="M850.792,-426.04C842.634,-410.693 830.344,-391.243 815,-378 805.635,-369.918 794.091,-363.34 782.854,-358.16"/>
<ellipse fill="none" stroke="#85a383" cx="852.636" cy="-429.639" rx="4.00002" ry="4.00002"/>
<polygon fill="#85a383" stroke="#85a383" points="782.721,-358.102 775.327,-350.004 778.131,-356.118 773.542,-354.135 773.542,-354.135 773.542,-354.135 778.131,-356.118 771.756,-358.265 782.721,-358.102 782.721,-358.102"/>
</g>
<!-- Article&#45;&gt;Comment -->
<g id="edge16" class="edge"><title>Article&#45;&gt;Comment</title>
<path fill="none" stroke="#6aaddc" d="M818.602,-448.91C778.903,-445.324 722.195,-433.119 694,-394 686.259,-383.259 693.931,-372.144 705,-363.042"/>
<ellipse fill="none" stroke="#6aaddc" cx="822.811" cy="-449.239" rx="4" ry="4"/>
<polygon fill="#6aaddc" stroke="#6aaddc" points="705.014,-363.032 715.731,-360.712 709.036,-360.062 713.058,-357.092 713.058,-357.092 713.058,-357.092 709.036,-360.062 710.385,-353.472 705.014,-363.032 705.014,-363.032"/>
<text text-anchor="middle" x="752.5" y="-382.3" font-family="Times,serif" font-size="14.00">published_comments</text>
</g>
<!-- Categorization -->
<g id="node22" class="node"><title>Categorization</title>
<ellipse fill="none" stroke="black" cx="1598" cy="-268" rx="62.0922" ry="18"/>
<text text-anchor="middle" x="1598" y="-264.3" font-family="Times,serif" font-size="14.00">Categorization</text>
</g>
<!-- Article&#45;&gt;Categorization -->
<g id="edge13" class="edge"><title>Article&#45;&gt;Categorization</title>
<path fill="none" stroke="#deeedf" d="M881.394,-428.237C888.443,-421.799 896.927,-415.533 906,-412 1029.27,-364.004 1374.47,-432.597 1501,-394 1528.13,-385.725 1536.19,-381.225 1555,-360 1571.58,-341.291 1583.06,-315.074 1589.96,-295.582"/>
<ellipse fill="none" stroke="#deeedf" cx="878.213" cy="-431.334" rx="4.00002" ry="4.00002"/>
<polygon fill="#deeedf" stroke="#deeedf" points="1589.97,-295.557 1597.42,-287.512 1591.56,-290.818 1593.15,-286.078 1593.15,-286.078 1593.15,-286.078 1591.56,-290.818 1588.89,-284.645 1589.97,-295.557 1589.97,-295.557"/>
</g>
<!-- Category -->
<g id="node23" class="node"><title>Category</title>
<ellipse fill="none" stroke="black" cx="1645" cy="-342" rx="42.3456" ry="18"/>
<text text-anchor="middle" x="1645" y="-338.3" font-family="Times,serif" font-size="14.00">Category</text>
</g>
<!-- Article&#45;&gt;Category -->
<g id="edge14" class="edge"><title>Article&#45;&gt;Category</title>
<path fill="none" stroke="#526ba9" d="M882.697,-427.037C889.476,-421.021 897.476,-415.3 906,-412 976.691,-384.632 1517.55,-421.987 1588,-394 1602.16,-388.374 1615.08,-377.545 1625.02,-367.307"/>
<polygon fill="#526ba9" stroke="#526ba9" points="882.55,-427.177 872.222,-430.862 878.945,-430.642 875.341,-434.107 875.341,-434.107 875.341,-434.107 878.945,-430.642 878.459,-437.351 882.55,-427.177 882.55,-427.177"/>
<polygon fill="#526ba9" stroke="#526ba9" points="1625.26,-367.055 1635.33,-362.734 1628.64,-363.372 1632.02,-359.69 1632.02,-359.69 1632.02,-359.69 1628.64,-363.372 1628.71,-356.646 1625.26,-367.055 1625.26,-367.055"/>
</g>
<!-- User -->
<g id="node24" class="node"><title>User</title>
<ellipse fill="none" stroke="black" cx="996" cy="-92" rx="26.949" ry="18"/>
<text text-anchor="middle" x="996" y="-88.3" font-family="Times,serif" font-size="14.00">User</text>
</g>
<!-- Article&#45;&gt;User -->
<g id="edge5" class="edge"><title>Article&#45;&gt;User</title>
<path fill="none" stroke="#1de28c" d="M884.221,-427.082C890.764,-421.422 898.258,-415.877 906,-412 939.363,-395.294 962.954,-421.657 988,-394 1031.19,-346.305 965.925,-302.592 1003,-250 1013.77,-234.726 1031.01,-247.791 1041,-232 1044.8,-225.991 1042.2,-223.009 1041,-216 1035,-180.936 1019.53,-142.792 1008.4,-118.428"/>
<polygon fill="#1de28c" stroke="#1de28c" points="883.852,-427.423 873.447,-430.886 880.173,-430.81 876.495,-434.197 876.495,-434.197 876.495,-434.197 880.173,-430.81 879.544,-437.507 883.852,-427.423 883.852,-427.423"/>
<polygon fill="#1de28c" stroke="#1de28c" points="1008.32,-118.247 1008.16,-107.283 1006.2,-113.717 1004.09,-109.187 1004.09,-109.187 1004.09,-109.187 1006.2,-113.717 1000.01,-111.091 1008.32,-118.247 1008.32,-118.247"/>
<text text-anchor="middle" x="1036.5" y="-264.3" font-family="Times,serif" font-size="14.00">notify_users</text>
</g>
<!-- Feedback -->
<g id="node28" class="node"><title>Feedback</title>
<ellipse fill="none" stroke="black" cx="939" cy="-342" rx="44.2946" ry="18"/>
<text text-anchor="middle" x="939" y="-338.3" font-family="Times,serif" font-size="14.00">Feedback</text>
</g>
<!-- Article&#45;&gt;Feedback -->
<g id="edge11" class="edge"><title>Article&#45;&gt;Feedback</title>
<path fill="none" stroke="#4b40c7" d="M882.631,-428.848C889.572,-422.688 897.678,-416.431 906,-412 932.837,-397.709 953.545,-418.163 972,-394 978.902,-384.964 974.137,-374.494 966.309,-365.4"/>
<ellipse fill="none" stroke="#4b40c7" cx="879.547" cy="-431.704" rx="4.00002" ry="4.00002"/>
<polygon fill="#4b40c7" stroke="#4b40c7" points="966.2,-365.288 962.415,-354.996 962.7,-361.717 959.201,-358.146 959.201,-358.146 959.201,-358.146 962.7,-361.717 955.987,-361.295 966.2,-365.288 966.2,-365.288"/>
</g>
<!-- Article&#45;&gt;Feedback -->
<g id="edge18" class="edge"><title>Article&#45;&gt;Feedback</title>
<path fill="none" stroke="#e0a9a8" d="M854.181,-425.288C851.035,-410.425 849.987,-391.782 859,-378 866.34,-366.778 878.158,-359.132 890.484,-353.931"/>
<ellipse fill="none" stroke="#e0a9a8" cx="855.143" cy="-429.216" rx="4.00001" ry="4.00001"/>
<polygon fill="#e0a9a8" stroke="#e0a9a8" points="890.57,-353.899 901.512,-354.629 895.257,-352.155 899.943,-350.412 899.943,-350.412 899.943,-350.412 895.257,-352.155 898.374,-346.194 890.57,-353.899 890.57,-353.899"/>
<text text-anchor="middle" x="913.5" y="-382.3" font-family="Times,serif" font-size="14.00">published_feedback</text>
</g>
<!-- Trackback&#45;&gt;Redirect -->
<g id="edge23" class="edge"><title>Trackback&#45;&gt;Redirect</title>
<path fill="none" stroke="#44178c" d="M581.018,-321.248C598.901,-310.864 620.715,-298.198 638.386,-287.937"/>
<polygon fill="#44178c" stroke="#44178c" points="580.741,-321.408 569.834,-322.538 576.417,-323.919 572.093,-326.43 572.093,-326.43 572.093,-326.43 576.417,-323.919 574.353,-330.321 580.741,-321.408 580.741,-321.408"/>
<polygon fill="#44178c" stroke="#44178c" points="638.558,-287.837 649.466,-286.707 642.882,-285.326 647.206,-282.816 647.206,-282.816 647.206,-282.816 642.882,-285.326 644.947,-278.924 638.558,-287.837 638.558,-287.837"/>
</g>
<!-- Trackback&#45;&gt;Notification -->
<g id="edge20" class="edge"><title>Trackback&#45;&gt;Notification</title>
<path fill="none" stroke="#969e9c" d="M534.143,-316.95C508.503,-265.322 458.529,-142.983 520,-74 547.05,-43.6443 810.396,-27.5761 933.35,-21.6771"/>
<ellipse fill="none" stroke="#969e9c" cx="536.073" cy="-320.757" rx="4.00002" ry="4.00002"/>
<polygon fill="#969e9c" stroke="#969e9c" points="933.389,-21.6753 943.591,-25.6986 938.384,-21.4394 943.378,-21.2036 943.378,-21.2036 943.378,-21.2036 938.384,-21.4394 943.166,-16.7086 933.389,-21.6753 933.389,-21.6753"/>
</g>
<!-- Trackback&#45;&gt;Trigger -->
<g id="edge24" class="edge"><title>Trackback&#45;&gt;Trigger</title>
<path fill="none" stroke="#9775db" d="M599.758,-334.169C625.201,-330.947 656.169,-327.133 684,-324 767.454,-314.606 986.26,-326.191 1060,-286 1130.51,-247.57 1180.29,-162.036 1201.92,-118.914"/>
<ellipse fill="none" stroke="#9775db" cx="595.671" cy="-334.688" rx="4.00001" ry="4.00001"/>
<polygon fill="#9775db" stroke="#9775db" points="1201.94,-118.875 1210.39,-111.878 1204.14,-114.386 1206.34,-109.897 1206.34,-109.897 1206.34,-109.897 1204.14,-114.386 1202.3,-107.915 1201.94,-118.875 1201.94,-118.875"/>
</g>
<!-- Trackback&#45;&gt;Redirection -->
<g id="edge22" class="edge"><title>Trackback&#45;&gt;Redirection</title>
<path fill="none" stroke="#fd7d1d" d="M550.448,-315.849C556.875,-268.968 570.634,-168.608 577.27,-120.209"/>
<ellipse fill="none" stroke="#fd7d1d" cx="549.88" cy="-319.991" rx="4.00001" ry="4.00001"/>
<polygon fill="#fd7d1d" stroke="#fd7d1d" points="577.288,-120.073 583.105,-110.777 577.968,-115.119 578.647,-110.165 578.647,-110.165 578.647,-110.165 577.968,-115.119 574.188,-109.554 577.288,-120.073 577.288,-120.073"/>
</g>
<!-- Trackback&#45;&gt;User -->
<g id="edge21" class="edge"><title>Trackback&#45;&gt;User</title>
<path fill="none" stroke="#6e27a8" d="M603.764,-335.425C640.922,-329.043 688.291,-315.356 720,-286 775.597,-234.53 724.84,-175.332 784,-128 810.352,-106.917 905.358,-98.152 958.806,-94.8248"/>
<polygon fill="#6e27a8" stroke="#6e27a8" points="603.453,-335.474 592.872,-332.594 598.514,-336.256 593.576,-337.038 593.576,-337.038 593.576,-337.038 598.514,-336.256 594.28,-341.483 603.453,-335.474 603.453,-335.474"/>
<polygon fill="#6e27a8" stroke="#6e27a8" points="958.926,-94.8178 969.173,-98.722 963.917,-94.5238 968.909,-94.2298 968.909,-94.2298 968.909,-94.2298 963.917,-94.5238 968.644,-89.7376 958.926,-94.8178 958.926,-94.8178"/>
<text text-anchor="middle" x="783.5" y="-220.3" font-family="Times,serif" font-size="14.00">notify_users</text>
</g>
<!-- Comment&#45;&gt;Redirect -->
<g id="edge28" class="edge"><title>Comment&#45;&gt;Redirect</title>
<path fill="none" stroke="#2b94a0" d="M714.497,-317.735C710.595,-313.871 706.645,-309.864 703,-306 699.066,-301.83 694.982,-297.287 691.101,-292.857"/>
<polygon fill="#2b94a0" stroke="#2b94a0" points="714.695,-317.928 718.709,-328.133 718.273,-321.421 721.852,-324.913 721.852,-324.913 721.852,-324.913 718.273,-321.421 724.995,-321.693 714.695,-317.928 714.695,-317.928"/>
<polygon fill="#2b94a0" stroke="#2b94a0" points="690.946,-292.678 687.814,-282.169 687.677,-288.894 684.409,-285.111 684.409,-285.111 684.409,-285.111 687.677,-288.894 681.003,-288.053 690.946,-292.678 690.946,-292.678"/>
</g>
<!-- Comment&#45;&gt;Notification -->
<g id="edge25" class="edge"><title>Comment&#45;&gt;Notification</title>
<path fill="none" stroke="#2241a9" d="M735.123,-315.816C728.349,-261.343 721.39,-132.759 795,-74 834.526,-42.4482 890.821,-28.9548 933.784,-23.206"/>
<ellipse fill="none" stroke="#2241a9" cx="735.67" cy="-319.934" rx="4.00001" ry="4.00001"/>
<polygon fill="#2241a9" stroke="#2241a9" points="933.919,-23.1894 944.394,-26.4336 938.881,-22.5784 943.844,-21.9674 943.844,-21.9674 943.844,-21.9674 938.881,-22.5784 943.294,-17.5011 933.919,-23.1894 933.919,-23.1894"/>
</g>
<!-- Comment&#45;&gt;Trigger -->
<g id="edge29" class="edge"><title>Comment&#45;&gt;Trigger</title>
<path fill="none" stroke="#d858da" d="M790.176,-334.531C818.406,-331.101 854.106,-326.991 886,-324 913.728,-321.4 1113.76,-322.761 1136,-306 1195.25,-261.347 1209.54,-167.059 1212.95,-120.375"/>
<ellipse fill="none" stroke="#d858da" cx="786.015" cy="-335.04" rx="4.00001" ry="4.00001"/>
<polygon fill="#d858da" stroke="#d858da" points="1212.97,-120.096 1218.07,-110.39 1213.27,-115.105 1213.58,-110.115 1213.58,-110.115 1213.58,-110.115 1213.27,-115.105 1209.09,-109.839 1212.97,-120.096 1212.97,-120.096"/>
</g>
<!-- Comment&#45;&gt;Redirection -->
<g id="edge27" class="edge"><title>Comment&#45;&gt;Redirection</title>
<path fill="none" stroke="#234b78" d="M691.664,-330.152C667.127,-322.067 638.845,-308.429 622,-286 579.306,-229.151 617.524,-196.069 597,-128 596.15,-125.181 595.119,-122.296 593.994,-119.451"/>
<ellipse fill="none" stroke="#234b78" cx="695.661" cy="-331.396" rx="4.00001" ry="4.00001"/>
<polygon fill="#234b78" stroke="#234b78" points="593.911,-119.26 594.063,-108.295 591.923,-114.673 589.934,-110.085 589.934,-110.085 589.934,-110.085 591.923,-114.673 585.806,-111.875 593.911,-119.26 593.911,-119.26"/>
</g>
<!-- Comment&#45;&gt;User -->
<g id="edge26" class="edge"><title>Comment&#45;&gt;User</title>
<path fill="none" stroke="#5a816d" d="M770.715,-320.707C777.537,-316.053 784.613,-310.998 791,-306 833.251,-272.937 937.39,-186.601 970,-144 975.881,-136.317 981.05,-127.101 985.197,-118.63"/>
<polygon fill="#5a816d" stroke="#5a816d" points="770.59,-320.791 759.777,-322.615 766.435,-323.573 762.281,-326.355 762.281,-326.355 762.281,-326.355 766.435,-323.573 764.784,-330.094 770.59,-320.791 770.59,-320.791"/>
<polygon fill="#5a816d" stroke="#5a816d" points="985.222,-118.576 993.511,-111.396 987.325,-114.039 989.429,-109.503 989.429,-109.503 989.429,-109.503 987.325,-114.039 985.346,-107.61 985.222,-118.576 985.222,-118.576"/>
<text text-anchor="middle" x="931.5" y="-220.3" font-family="Times,serif" font-size="14.00">notify_users</text>
</g>
<!-- Content&#45;&gt;Notification -->
<g id="edge30" class="edge"><title>Content&#45;&gt;Notification</title>
<path fill="none" stroke="#7b0c7b" d="M797.832,-161.113C785.884,-151.852 776.682,-139.991 784,-128 817.956,-72.3609 890.375,-43.926 941.077,-30.2815"/>
<ellipse fill="none" stroke="#7b0c7b" cx="801.406" cy="-163.656" rx="4.00002" ry="4.00002"/>
<polygon fill="#7b0c7b" stroke="#7b0c7b" points="941.226,-30.243 952.033,-32.1037 946.068,-28.9946 950.91,-27.7462 950.91,-27.7462 950.91,-27.7462 946.068,-28.9946 949.786,-23.3887 941.226,-30.243 941.226,-30.243"/>
</g>
<!-- Content&#45;&gt;Trigger -->
<g id="edge33" class="edge"><title>Content&#45;&gt;Trigger</title>
<path fill="none" stroke="#f637ea" d="M870.909,-169.638C944.573,-153.184 1096.5,-119.247 1170.96,-102.615"/>
<ellipse fill="none" stroke="#f637ea" cx="866.733" cy="-170.571" rx="4.00001" ry="4.00001"/>
<polygon fill="#f637ea" stroke="#f637ea" points="1171.17,-102.567 1181.91,-104.778 1176.05,-101.477 1180.93,-100.387 1180.93,-100.387 1180.93,-100.387 1176.05,-101.477 1179.95,-95.9947 1171.17,-102.567 1171.17,-102.567"/>
</g>
<!-- Content&#45;&gt;Redirection -->
<g id="edge32" class="edge"><title>Content&#45;&gt;Redirection</title>
<path fill="none" stroke="#09d1db" d="M789.122,-167.579C769.469,-161.451 745.622,-153.256 725,-144 711.924,-138.131 710.167,-133.662 697,-128 676.241,-119.074 652.478,-111.476 631.888,-105.663"/>
<ellipse fill="none" stroke="#09d1db" cx="793.163" cy="-168.819" rx="4.00001" ry="4.00001"/>
<polygon fill="#09d1db" stroke="#09d1db" points="631.703,-105.612 623.258,-98.6172 626.883,-104.284 622.062,-102.955 622.062,-102.955 622.062,-102.955 626.883,-104.284 620.867,-107.294 631.703,-105.612 631.703,-105.612"/>
</g>
<!-- Content&#45;&gt;User -->
<g id="edge31" class="edge"><title>Content&#45;&gt;User</title>
<path fill="none" stroke="#65dd70" d="M858.485,-158.812C865.54,-153.969 873.043,-148.807 880,-144 890.245,-136.921 891.977,-133.793 903,-128 921.812,-118.113 944.054,-109.637 962.069,-103.504"/>
<polygon fill="#65dd70" stroke="#65dd70" points="858.11,-159.069 847.318,-161.015 853.987,-161.897 849.864,-164.726 849.864,-164.726 849.864,-164.726 853.987,-161.897 852.409,-168.437 858.11,-159.069 858.11,-159.069"/>
<polygon fill="#65dd70" stroke="#65dd70" points="962.102,-103.492 973.011,-104.614 966.848,-101.918 971.593,-100.343 971.593,-100.343 971.593,-100.343 966.848,-101.918 970.176,-96.0718 962.102,-103.492 962.102,-103.492"/>
<text text-anchor="middle" x="936.5" y="-132.3" font-family="Times,serif" font-size="14.00">notify_users</text>
</g>
<!-- Theme -->
<g id="node20" class="node"><title>Theme</title>
<polygon fill="none" stroke="black" points="1540.25,-469 1485.75,-469 1485.75,-433 1540.25,-433 1540.25,-469"/>
<text text-anchor="middle" x="1513" y="-447.3" font-family="Times,serif" font-size="14.00">Theme</text>
</g>
<!-- BlogSweeper -->
<g id="node21" class="node"><title>BlogSweeper</title>
<polygon fill="none" stroke="black" points="1647.25,-469 1558.75,-469 1558.75,-433 1647.25,-433 1647.25,-469"/>
<text text-anchor="middle" x="1603" y="-447.3" font-family="Times,serif" font-size="14.00">BlogSweeper</text>
</g>
<!-- Category&#45;&gt;Categorization -->
<g id="edge35" class="edge"><title>Category&#45;&gt;Categorization</title>
<path fill="none" stroke="#3df55f" d="M1629.67,-317.509C1624.86,-310.151 1619.54,-301.998 1614.65,-294.508"/>
<ellipse fill="none" stroke="#3df55f" cx="1631.91" cy="-320.951" rx="4.00002" ry="4.00002"/>
<polygon fill="#3df55f" stroke="#3df55f" points="1614.63,-294.482 1612.94,-283.649 1611.9,-290.296 1609.17,-286.109 1609.17,-286.109 1609.17,-286.109 1611.9,-290.296 1605.4,-288.568 1614.63,-294.482 1614.63,-294.482"/>
</g>
<!-- Category&#45;&gt;Category -->
<g id="edge34" class="edge"><title>Category&#45;&gt;Category</title>
<path fill="none" stroke="#551fdb" d="M1692.59,-348.178C1699.97,-347.25 1705,-345.19 1705,-342 1705,-339.142 1700.97,-337.191 1694.82,-336.149"/>
<ellipse fill="none" stroke="#551fdb" cx="1688.52" cy="-348.457" rx="4" ry="4"/>
<polygon fill="#551fdb" stroke="#551fdb" points="1694.49,-336.121 1684.91,-330.786 1689.51,-335.695 1684.53,-335.27 1684.53,-335.27 1684.53,-335.27 1689.51,-335.695 1684.14,-339.754 1694.49,-336.121 1694.49,-336.121"/>
<text text-anchor="middle" x="1727.5" y="-338.3" font-family="Times,serif" font-size="14.00">children</text>
</g>
<!-- User&#45;&gt;Notification -->
<g id="edge36" class="edge"><title>User&#45;&gt;Notification</title>
<path fill="none" stroke="#53640d" d="M996,-65.7923C996,-59.5805 996,-52.8963 996,-46.5786"/>
<ellipse fill="none" stroke="#53640d" cx="996" cy="-69.937" rx="4" ry="4"/>
<polygon fill="#53640d" stroke="#53640d" points="996,-46.4407 1000.5,-36.4406 996,-41.4407 996,-36.4407 996,-36.4407 996,-36.4407 996,-41.4407 991.5,-36.4407 996,-46.4407 996,-46.4407"/>
</g>
<!-- User&#45;&gt;Article -->
<g id="edge38" class="edge"><title>User&#45;&gt;Article</title>
<path fill="none" stroke="#2b0854" d="M1025.52,-106.712C1051.09,-120.857 1084,-145.559 1084,-179 1084,-343 1084,-343 1084,-343 1084,-427.847 982.638,-375.591 906,-412 897.875,-415.86 890.074,-421.638 883.357,-427.531"/>
<ellipse fill="none" stroke="#2b0854" cx="1021.74" cy="-104.707" rx="4.00002" ry="4.00002"/>
<polygon fill="#2b0854" stroke="#2b0854" points="883.32,-427.565 872.941,-431.106 879.667,-430.979 876.014,-434.393 876.014,-434.393 876.014,-434.393 879.667,-430.979 879.087,-437.681 883.32,-427.565 883.32,-427.565"/>
</g>
<!-- User&#45;&gt;Content -->
<g id="edge37" class="edge"><title>User&#45;&gt;Content</title>
<path fill="none" stroke="#aacd31" d="M958.481,-93.8397C905.275,-95.9129 812.009,-103.1 791,-128 782.807,-137.711 789.657,-148.996 799.682,-158.478"/>
<polygon fill="#aacd31" stroke="#aacd31" points="958.561,-93.837 968.711,-97.9868 963.557,-93.6633 968.554,-93.4895 968.554,-93.4895 968.554,-93.4895 963.557,-93.6633 968.398,-88.9922 958.561,-93.837 958.561,-93.837"/>
<polygon fill="#aacd31" stroke="#aacd31" points="799.753,-158.539 804.458,-168.445 803.563,-161.778 807.373,-165.016 807.373,-165.016 807.373,-165.016 803.563,-161.778 810.287,-161.587 799.753,-158.539 799.753,-158.539"/>
<text text-anchor="middle" x="833.5" y="-132.3" font-family="Times,serif" font-size="14.00">notify_contents</text>
</g>
<!-- WebNotifier -->
<g id="node25" class="node"><title>WebNotifier</title>
<polygon fill="none" stroke="black" points="1752,-469 1666,-469 1666,-433 1752,-433 1752,-469"/>
<text text-anchor="middle" x="1709" y="-447.3" font-family="Times,serif" font-size="14.00">WebNotifier</text>
</g>
<!-- Sidebar -->
<g id="node26" class="node"><title>Sidebar</title>
<ellipse fill="none" stroke="black" cx="1808" cy="-451" rx="37.5442" ry="18"/>
<text text-anchor="middle" x="1808" y="-447.3" font-family="Times,serif" font-size="14.00">Sidebar</text>
</g>
<!-- Page -->
<g id="node27" class="node"><title>Page</title>
<ellipse fill="none" stroke="black" cx="1312" cy="-342" rx="27.4223" ry="18"/>
<text text-anchor="middle" x="1312" y="-338.3" font-family="Times,serif" font-size="14.00">Page</text>
</g>
<!-- Page&#45;&gt;Redirect -->
<g id="edge42" class="edge"><title>Page&#45;&gt;Redirect</title>
<path fill="none" stroke="#bbdf9e" d="M1274.64,-336.804C1164.77,-324.463 842.738,-288.29 719.625,-274.462"/>
<polygon fill="#bbdf9e" stroke="#bbdf9e" points="1274.93,-336.836 1284.36,-342.424 1279.9,-337.394 1284.87,-337.952 1284.87,-337.952 1284.87,-337.952 1279.9,-337.394 1285.37,-333.48 1274.93,-336.836 1274.93,-336.836"/>
<polygon fill="#bbdf9e" stroke="#bbdf9e" points="719.315,-274.427 709.88,-268.839 714.346,-273.869 709.377,-273.311 709.377,-273.311 709.377,-273.311 714.346,-273.869 708.875,-277.783 719.315,-274.427 719.315,-274.427"/>
</g>
<!-- Page&#45;&gt;Notification -->
<g id="edge39" class="edge"><title>Page&#45;&gt;Notification</title>
<path fill="none" stroke="#c15099" d="M1339.1,-325.208C1352.44,-315.749 1367.11,-302.375 1374,-286 1386.1,-257.253 1388.56,-245.69 1379,-216 1355.19,-142.033 1333.68,-127.151 1277,-74 1264.77,-62.5281 1260.76,-59.7371 1245,-54 1184.36,-31.9266 1110.74,-23.675 1059.33,-20.6427"/>
<ellipse fill="none" stroke="#c15099" cx="1335.61" cy="-327.557" rx="4.00002" ry="4.00002"/>
<polygon fill="#c15099" stroke="#c15099" points="1059.02,-20.6261 1049.28,-15.594 1054.03,-20.3568 1049.04,-20.0875 1049.04,-20.0875 1049.04,-20.0875 1054.03,-20.3568 1048.8,-24.581 1059.02,-20.6261 1059.02,-20.6261"/>
</g>
<!-- Page&#45;&gt;Trigger -->
<g id="edge43" class="edge"><title>Page&#45;&gt;Trigger</title>
<path fill="none" stroke="#0736ee" d="M1331.25,-319.851C1351.64,-294.734 1378.77,-251.74 1362,-216 1355.48,-202.099 1282,-144.735 1241.1,-113.498"/>
<ellipse fill="none" stroke="#0736ee" cx="1328.55" cy="-323.073" rx="4.00002" ry="4.00002"/>
<polygon fill="#0736ee" stroke="#0736ee" points="1241.09,-113.496 1235.87,-103.857 1237.12,-110.466 1233.14,-107.437 1233.14,-107.437 1233.14,-107.437 1237.12,-110.466 1230.41,-111.017 1241.09,-113.496 1241.09,-113.496"/>
</g>
<!-- Page&#45;&gt;Redirection -->
<g id="edge41" class="edge"><title>Page&#45;&gt;Redirection</title>
<path fill="none" stroke="#f811e8" d="M1284.55,-325.822C1233.47,-298.408 1119.59,-241.151 1016,-216 914.637,-191.391 882.271,-226.734 782,-198 748.045,-188.27 662.94,-140.594 615.071,-112.947"/>
<ellipse fill="none" stroke="#f811e8" cx="1288.1" cy="-327.741" rx="4.00002" ry="4.00002"/>
<polygon fill="#f811e8" stroke="#f811e8" points="614.956,-112.881 608.56,-103.973 610.63,-110.374 606.304,-107.867 606.304,-107.867 606.304,-107.867 610.63,-110.374 604.048,-111.76 614.956,-112.881 614.956,-112.881"/>
</g>
<!-- Page&#45;&gt;User -->
<g id="edge40" class="edge"><title>Page&#45;&gt;User</title>
<path fill="none" stroke="#9e3953" d="M1297.25,-316.365C1294.36,-312.109 1291.22,-307.826 1288,-304 1213.89,-215.926 1196.8,-187.068 1098,-128 1077.38,-115.672 1051.8,-106.909 1031.42,-101.235"/>
<polygon fill="#9e3953" stroke="#9e3953" points="1297.35,-316.515 1299,-327.356 1300.06,-320.713 1302.78,-324.912 1302.78,-324.912 1302.78,-324.912 1300.06,-320.713 1306.56,-322.467 1297.35,-316.515 1297.35,-316.515"/>
<polygon fill="#9e3953" stroke="#9e3953" points="1031.25,-101.189 1022.74,-94.2715 1026.42,-99.9046 1021.58,-98.6206 1021.58,-98.6206 1021.58,-98.6206 1026.42,-99.9046 1020.43,-102.97 1031.25,-101.189 1031.25,-101.189"/>
<text text-anchor="middle" x="1260.5" y="-220.3" font-family="Times,serif" font-size="14.00">notify_users</text>
</g>
<!-- Feedback&#45;&gt;Redirect -->
<g id="edge47" class="edge"><title>Feedback&#45;&gt;Redirect</title>
<path fill="none" stroke="#f768a7" d="M893.217,-328.7C843.091,-315.233 763.327,-293.804 714.234,-280.615"/>
<polygon fill="#f768a7" stroke="#f768a7" points="893.477,-328.77 901.967,-335.71 898.306,-330.067 903.134,-331.364 903.134,-331.364 903.134,-331.364 898.306,-330.067 904.302,-327.019 893.477,-328.77 893.477,-328.77"/>
<polygon fill="#f768a7" stroke="#f768a7" points="714.201,-280.606 705.711,-273.666 709.372,-279.309 704.544,-278.012 704.544,-278.012 704.544,-278.012 709.372,-279.309 703.376,-282.358 714.201,-280.606 714.201,-280.606"/>
</g>
<!-- Feedback&#45;&gt;Notification -->
<g id="edge44" class="edge"><title>Feedback&#45;&gt;Notification</title>
<path fill="none" stroke="#61df6f" d="M991.455,-341.622C1043.59,-340.442 1124.82,-333.661 1189,-306 1274.09,-269.331 1248.5,-201.934 1260,-110 1261.99,-94.1237 1270.09,-86.4139 1260,-74 1235.01,-43.2733 1127.76,-29.1383 1057.88,-23.0848"/>
<ellipse fill="none" stroke="#61df6f" cx="987.344" cy="-341.695" rx="4" ry="4"/>
<polygon fill="#61df6f" stroke="#61df6f" points="1057.82,-23.0799 1048.23,-17.7648 1052.83,-22.6646 1047.85,-22.2493 1047.85,-22.2493 1047.85,-22.2493 1052.83,-22.6646 1047.48,-26.7337 1057.82,-23.0799 1057.82,-23.0799"/>
</g>
<!-- Feedback&#45;&gt;Trigger -->
<g id="edge48" class="edge"><title>Feedback&#45;&gt;Trigger</title>
<path fill="none" stroke="#151791" d="M991.004,-340.04C1052.12,-337.788 1148.47,-330.353 1174,-306 1225.04,-257.313 1222.78,-165.707 1217.91,-120.152"/>
<ellipse fill="none" stroke="#151791" cx="986.992" cy="-340.177" rx="4" ry="4"/>
<polygon fill="#151791" stroke="#151791" points="1217.9,-120.059 1221.18,-109.596 1217.3,-115.094 1216.71,-110.129 1216.71,-110.129 1216.71,-110.129 1217.3,-115.094 1212.24,-110.662 1217.9,-120.059 1217.9,-120.059"/>
</g>
<!-- Feedback&#45;&gt;Redirection -->
<g id="edge46" class="edge"><title>Feedback&#45;&gt;Redirection</title>
<path fill="none" stroke="#517799" d="M922.469,-317.924C900.487,-289.114 858.8,-240.631 811,-216 770.858,-195.314 752.071,-216.774 711,-198 668.144,-178.41 627.338,-141.411 603.233,-116.98"/>
<ellipse fill="none" stroke="#517799" cx="924.967" cy="-321.252" rx="4.00002" ry="4.00002"/>
<polygon fill="#517799" stroke="#517799" points="602.971,-116.709 599.244,-106.396 599.491,-113.118 596.012,-109.528 596.012,-109.528 596.012,-109.528 599.491,-113.118 592.78,-112.659 602.971,-116.709 602.971,-116.709"/>
</g>
<!-- Feedback&#45;&gt;User -->
<g id="edge45" class="edge"><title>Feedback&#45;&gt;User</title>
<path fill="none" stroke="#315473" d="M946.46,-314.032C953.49,-288.7 964.354,-249.748 974,-216 983.161,-183.95 989.963,-176.951 995,-144 996.178,-136.296 996.664,-127.863 996.795,-120.111"/>
<polygon fill="#315473" stroke="#315473" points="946.369,-314.364 939.361,-322.798 945.033,-319.182 943.697,-324 943.697,-324 943.697,-324 945.033,-319.182 948.034,-325.202 946.369,-314.364 946.369,-314.364"/>
<polygon fill="#315473" stroke="#315473" points="996.795,-120.096 1001.28,-110.091 996.79,-115.096 996.785,-110.096 996.785,-110.096 996.785,-110.096 996.79,-115.096 992.285,-110.101 996.795,-120.096 996.795,-120.096"/>
<text text-anchor="middle" x="1007.5" y="-220.3" font-family="Times,serif" font-size="14.00">notify_users</text>
</g>
<!-- Blog -->
<g id="node29" class="node"><title>Blog</title>
<ellipse fill="none" stroke="black" cx="1892" cy="-451" rx="27.4223" ry="18"/>
<text text-anchor="middle" x="1892" y="-447.3" font-family="Times,serif" font-size="14.00">Blog</text>
</g>
<!-- TextFilter -->
<g id="node30" class="node"><title>TextFilter</title>
<ellipse fill="none" stroke="black" cx="1984" cy="-451" rx="46.2191" ry="18"/>
<text text-anchor="middle" x="1984" y="-447.3" font-family="Times,serif" font-size="14.00">TextFilter</text>
</g>
</g>
</svg>
