<?xml version="1.0" encoding="UTF-8" standalone="no"?>
<!DOCTYPE svg PUBLIC "-//W3C//DTD SVG 1.1//EN"
 "http://www.w3.org/Graphics/SVG/1.1/DTD/svg11.dtd">
<!-- Generated by graphviz version 2.36.0 (20140111.2315)
 -->
<!-- Title: models_diagram Pages: 1 -->
<svg width="2510pt" height="1862pt"
 viewBox="0.00 0.00 2510.00 1862.00" xmlns="http://www.w3.org/2000/svg" xmlns:xlink="http://www.w3.org/1999/xlink">
<g id="graph0" class="graph" transform="scale(1 1) rotate(0) translate(4 1858)">
<title>models_diagram</title>
<polygon fill="white" stroke="none" points="-4,4 -4,-1858 2506,-1858 2506,4 -4,4"/>
<!-- _diagram_info -->
<g id="node1" class="node"><title>_diagram_info</title>
<text text-anchor="start" x="8" y="-1689.6" font-family="Times,serif" font-size="13.00">Models diagram</text>
<text text-anchor="start" x="8" y="-1675.6" font-family="Times,serif" font-size="13.00">Date: Jan 18 2015 &#45; 15:57</text>
<text text-anchor="start" x="8" y="-1661.6" font-family="Times,serif" font-size="13.00">Migration version: 104</text>
<text text-anchor="start" x="8" y="-1647.6" font-family="Times,serif" font-size="13.00">Generated by RailRoady 1.3.0</text>
<text text-anchor="start" x="8" y="-1633.6" font-family="Times,serif" font-size="13.00">http://railroady.prestonlee.com</text>
</g>
<!-- Right -->
<g id="node2" class="node"><title>Right</title>
<path fill="none" stroke="black" d="M212.5,-1627C212.5,-1627 303.5,-1627 303.5,-1627 309.5,-1627 315.5,-1633 315.5,-1639 315.5,-1639 315.5,-1691 315.5,-1691 315.5,-1697 309.5,-1703 303.5,-1703 303.5,-1703 212.5,-1703 212.5,-1703 206.5,-1703 200.5,-1697 200.5,-1691 200.5,-1691 200.5,-1639 200.5,-1639 200.5,-1633 206.5,-1627 212.5,-1627"/>
<text text-anchor="middle" x="258" y="-1687.8" font-family="Times,serif" font-size="14.00">Right</text>
<polyline fill="none" stroke="black" points="200.5,-1680 315.5,-1680 "/>
<text text-anchor="start" x="208.5" y="-1664.8" font-family="Times,serif" font-size="14.00">id :integer</text>
<text text-anchor="start" x="208.5" y="-1649.8" font-family="Times,serif" font-size="14.00">name :string</text>
<text text-anchor="start" x="208.5" y="-1634.8" font-family="Times,serif" font-size="14.00">description :string</text>
</g>
<!-- Profile -->
<g id="node18" class="node"><title>Profile</title>
<path fill="none" stroke="black" d="M216.5,-1189.5C216.5,-1189.5 299.5,-1189.5 299.5,-1189.5 305.5,-1189.5 311.5,-1195.5 311.5,-1201.5 311.5,-1201.5 311.5,-1268.5 311.5,-1268.5 311.5,-1274.5 305.5,-1280.5 299.5,-1280.5 299.5,-1280.5 216.5,-1280.5 216.5,-1280.5 210.5,-1280.5 204.5,-1274.5 204.5,-1268.5 204.5,-1268.5 204.5,-1201.5 204.5,-1201.5 204.5,-1195.5 210.5,-1189.5 216.5,-1189.5"/>
<text text-anchor="middle" x="258" y="-1265.3" font-family="Times,serif" font-size="14.00">Profile</text>
<polyline fill="none" stroke="black" points="204.5,-1257.5 311.5,-1257.5 "/>
<text text-anchor="start" x="212.5" y="-1242.3" font-family="Times,serif" font-size="14.00">id :integer</text>
<text text-anchor="start" x="212.5" y="-1227.3" font-family="Times,serif" font-size="14.00">label :string</text>
<text text-anchor="start" x="212.5" y="-1212.3" font-family="Times,serif" font-size="14.00">nicename :string</text>
<text text-anchor="start" x="212.5" y="-1197.3" font-family="Times,serif" font-size="14.00">modules :text</text>
</g>
<!-- Right&#45;&gt;Profile -->
<g id="edge1" class="edge"><title>Right&#45;&gt;Profile</title>
<path fill="none" stroke="#edfcbd" d="M258,-1616.58C258,-1536.68 258,-1375.65 258,-1290.95"/>
<polygon fill="#edfcbd" stroke="#edfcbd" points="258,-1616.77 253.5,-1626.77 258,-1621.77 258,-1626.77 258,-1626.77 258,-1626.77 258,-1621.77 262.5,-1626.77 258,-1616.77 258,-1616.77"/>
<polygon fill="#edfcbd" stroke="#edfcbd" points="258,-1290.76 262.5,-1280.76 258,-1285.76 258,-1280.76 258,-1280.76 258,-1280.76 258,-1285.76 253.5,-1280.76 258,-1290.76 258,-1290.76"/>
</g>
<!-- Ping -->
<g id="node3" class="node"><title>Ping</title>
<path fill="none" stroke="black" d="M341.5,-1189.5C341.5,-1189.5 444.5,-1189.5 444.5,-1189.5 450.5,-1189.5 456.5,-1195.5 456.5,-1201.5 456.5,-1201.5 456.5,-1268.5 456.5,-1268.5 456.5,-1274.5 450.5,-1280.5 444.5,-1280.5 444.5,-1280.5 341.5,-1280.5 341.5,-1280.5 335.5,-1280.5 329.5,-1274.5 329.5,-1268.5 329.5,-1268.5 329.5,-1201.5 329.5,-1201.5 329.5,-1195.5 335.5,-1189.5 341.5,-1189.5"/>
<text text-anchor="middle" x="393" y="-1265.3" font-family="Times,serif" font-size="14.00">Ping</text>
<polyline fill="none" stroke="black" points="329.5,-1257.5 456.5,-1257.5 "/>
<text text-anchor="start" x="337.5" y="-1242.3" font-family="Times,serif" font-size="14.00">id :integer</text>
<text text-anchor="start" x="337.5" y="-1227.3" font-family="Times,serif" font-size="14.00">article_id :integer</text>
<text text-anchor="start" x="337.5" y="-1212.3" font-family="Times,serif" font-size="14.00">url :string</text>
<text text-anchor="start" x="337.5" y="-1197.3" font-family="Times,serif" font-size="14.00">created_at :datetime</text>
</g>
<!-- Resource -->
<g id="node4" class="node"><title>Resource</title>
<path fill="none" stroke="black" d="M486.5,-1107C486.5,-1107 617.5,-1107 617.5,-1107 623.5,-1107 629.5,-1113 629.5,-1119 629.5,-1119 629.5,-1351 629.5,-1351 629.5,-1357 623.5,-1363 617.5,-1363 617.5,-1363 486.5,-1363 486.5,-1363 480.5,-1363 474.5,-1357 474.5,-1351 474.5,-1351 474.5,-1119 474.5,-1119 474.5,-1113 480.5,-1107 486.5,-1107"/>
<text text-anchor="middle" x="552" y="-1347.8" font-family="Times,serif" font-size="14.00">Resource</text>
<polyline fill="none" stroke="black" points="474.5,-1340 629.5,-1340 "/>
<text text-anchor="start" x="482.5" y="-1324.8" font-family="Times,serif" font-size="14.00">id :integer</text>
<text text-anchor="start" x="482.5" y="-1309.8" font-family="Times,serif" font-size="14.00">size :integer</text>
<text text-anchor="start" x="482.5" y="-1294.8" font-family="Times,serif" font-size="14.00">filename :string</text>
<text text-anchor="start" x="482.5" y="-1279.8" font-family="Times,serif" font-size="14.00">mime :string</text>
<text text-anchor="start" x="482.5" y="-1264.8" font-family="Times,serif" font-size="14.00">created_at :datetime</text>
<text text-anchor="start" x="482.5" y="-1249.8" font-family="Times,serif" font-size="14.00">updated_at :datetime</text>
<text text-anchor="start" x="482.5" y="-1234.8" font-family="Times,serif" font-size="14.00">article_id :integer</text>
<text text-anchor="start" x="482.5" y="-1219.8" font-family="Times,serif" font-size="14.00">itunes_metadata :boolean</text>
<text text-anchor="start" x="482.5" y="-1204.8" font-family="Times,serif" font-size="14.00">itunes_author :string</text>
<text text-anchor="start" x="482.5" y="-1189.8" font-family="Times,serif" font-size="14.00">itunes_subtitle :string</text>
<text text-anchor="start" x="482.5" y="-1174.8" font-family="Times,serif" font-size="14.00">itunes_duration :integer</text>
<text text-anchor="start" x="482.5" y="-1159.8" font-family="Times,serif" font-size="14.00">itunes_summary :text</text>
<text text-anchor="start" x="482.5" y="-1144.8" font-family="Times,serif" font-size="14.00">itunes_keywords :string</text>
<text text-anchor="start" x="482.5" y="-1129.8" font-family="Times,serif" font-size="14.00">itunes_category :string</text>
<text text-anchor="start" x="482.5" y="-1114.8" font-family="Times,serif" font-size="14.00">itunes_explicit :boolean</text>
</g>
<!-- NotificationMailer -->
<g id="node5" class="node"><title>NotificationMailer</title>
<polygon fill="none" stroke="black" points="1222.5,-1642 1222.5,-1688 1341.5,-1688 1341.5,-1642 1222.5,-1642"/>
<text text-anchor="middle" x="1282" y="-1672.8" font-family="Times,serif" font-size="14.00">NotificationMailer</text>
<polyline fill="none" stroke="black" points="1222.5,-1665 1341.5,-1665 "/>
<text text-anchor="middle" x="1282" y="-1649.8" font-family="Times,serif" font-size="14.00"> </text>
</g>
<!-- PageCache -->
<g id="node6" class="node"><title>PageCache</title>
<polygon fill="none" stroke="black" points="1359.5,-1642 1359.5,-1688 1436.5,-1688 1436.5,-1642 1359.5,-1642"/>
<text text-anchor="middle" x="1398" y="-1672.8" font-family="Times,serif" font-size="14.00">PageCache</text>
<polyline fill="none" stroke="black" points="1359.5,-1665 1436.5,-1665 "/>
<text text-anchor="middle" x="1398" y="-1649.8" font-family="Times,serif" font-size="14.00"> </text>
</g>
<!-- EmailNotifier -->
<g id="node7" class="node"><title>EmailNotifier</title>
<polygon fill="none" stroke="black" points="1455,-1642 1455,-1688 1547,-1688 1547,-1642 1455,-1642"/>
<text text-anchor="middle" x="1501" y="-1672.8" font-family="Times,serif" font-size="14.00">EmailNotifier</text>
<polyline fill="none" stroke="black" points="1455,-1665 1547,-1665 "/>
<text text-anchor="middle" x="1501" y="-1649.8" font-family="Times,serif" font-size="14.00"> </text>
</g>
<!-- PostType -->
<g id="node8" class="node"><title>PostType</title>
<path fill="none" stroke="black" d="M1577.5,-1619.5C1577.5,-1619.5 1668.5,-1619.5 1668.5,-1619.5 1674.5,-1619.5 1680.5,-1625.5 1680.5,-1631.5 1680.5,-1631.5 1680.5,-1698.5 1680.5,-1698.5 1680.5,-1704.5 1674.5,-1710.5 1668.5,-1710.5 1668.5,-1710.5 1577.5,-1710.5 1577.5,-1710.5 1571.5,-1710.5 1565.5,-1704.5 1565.5,-1698.5 1565.5,-1698.5 1565.5,-1631.5 1565.5,-1631.5 1565.5,-1625.5 1571.5,-1619.5 1577.5,-1619.5"/>
<text text-anchor="middle" x="1623" y="-1695.3" font-family="Times,serif" font-size="14.00">PostType</text>
<polyline fill="none" stroke="black" points="1565.5,-1687.5 1680.5,-1687.5 "/>
<text text-anchor="start" x="1573.5" y="-1672.3" font-family="Times,serif" font-size="14.00">id :integer</text>
<text text-anchor="start" x="1573.5" y="-1657.3" font-family="Times,serif" font-size="14.00">name :string</text>
<text text-anchor="start" x="1573.5" y="-1642.3" font-family="Times,serif" font-size="14.00">permalink :string</text>
<text text-anchor="start" x="1573.5" y="-1627.3" font-family="Times,serif" font-size="14.00">description :string</text>
</g>
<!-- Redirect -->
<g id="node9" class="node"><title>Redirect</title>
<path fill="none" stroke="black" d="M830.5,-886.5C830.5,-886.5 937.5,-886.5 937.5,-886.5 943.5,-886.5 949.5,-892.5 949.5,-898.5 949.5,-898.5 949.5,-995.5 949.5,-995.5 949.5,-1001.5 943.5,-1007.5 937.5,-1007.5 937.5,-1007.5 830.5,-1007.5 830.5,-1007.5 824.5,-1007.5 818.5,-1001.5 818.5,-995.5 818.5,-995.5 818.5,-898.5 818.5,-898.5 818.5,-892.5 824.5,-886.5 830.5,-886.5"/>
<text text-anchor="middle" x="884" y="-992.3" font-family="Times,serif" font-size="14.00">Redirect</text>
<polyline fill="none" stroke="black" points="818.5,-984.5 949.5,-984.5 "/>
<text text-anchor="start" x="826.5" y="-969.3" font-family="Times,serif" font-size="14.00">id :integer</text>
<text text-anchor="start" x="826.5" y="-954.3" font-family="Times,serif" font-size="14.00">from_path :string</text>
<text text-anchor="start" x="826.5" y="-939.3" font-family="Times,serif" font-size="14.00">to_path :string</text>
<text text-anchor="start" x="826.5" y="-924.3" font-family="Times,serif" font-size="14.00">origin :string</text>
<text text-anchor="start" x="826.5" y="-909.3" font-family="Times,serif" font-size="14.00">created_at :datetime</text>
<text text-anchor="start" x="826.5" y="-894.3" font-family="Times,serif" font-size="14.00">updated_at :datetime</text>
</g>
<!-- Redirection -->
<g id="node14" class="node"><title>Redirection</title>
<path fill="none" stroke="black" d="M739,-237C739,-237 835,-237 835,-237 841,-237 847,-243 847,-249 847,-249 847,-301 847,-301 847,-307 841,-313 835,-313 835,-313 739,-313 739,-313 733,-313 727,-307 727,-301 727,-301 727,-249 727,-249 727,-243 733,-237 739,-237"/>
<text text-anchor="middle" x="787" y="-297.8" font-family="Times,serif" font-size="14.00">Redirection</text>
<polyline fill="none" stroke="black" points="727,-290 847,-290 "/>
<text text-anchor="start" x="735" y="-274.8" font-family="Times,serif" font-size="14.00">id :integer</text>
<text text-anchor="start" x="735" y="-259.8" font-family="Times,serif" font-size="14.00">content_id :integer</text>
<text text-anchor="start" x="735" y="-244.8" font-family="Times,serif" font-size="14.00">redirect_id :integer</text>
</g>
<!-- Redirect&#45;&gt;Redirection -->
<g id="edge2" class="edge"><title>Redirect&#45;&gt;Redirection</title>
<path fill="none" stroke="#313dc5" d="M853.395,-878.798C847.806,-864.275 842.61,-848.824 839,-834 793.914,-648.846 787.379,-420.378 786.796,-323.257"/>
<ellipse fill="none" stroke="#313dc5" cx="854.882" cy="-882.578" rx="4.00001" ry="4.00001"/>
<polygon fill="#313dc5" stroke="#313dc5" points="786.796,-323.172 791.255,-313.153 786.776,-318.172 786.755,-313.172 786.755,-313.172 786.755,-313.172 786.776,-318.172 782.255,-313.191 786.796,-323.172 786.796,-323.172"/>
</g>
<!-- Content -->
<g id="node19" class="node"><title>Content</title>
<path fill="none" stroke="black" d="M1007.5,-457C1007.5,-457 1144.5,-457 1144.5,-457 1150.5,-457 1156.5,-463 1156.5,-469 1156.5,-469 1156.5,-821 1156.5,-821 1156.5,-827 1150.5,-833 1144.5,-833 1144.5,-833 1007.5,-833 1007.5,-833 1001.5,-833 995.5,-827 995.5,-821 995.5,-821 995.5,-469 995.5,-469 995.5,-463 1001.5,-457 1007.5,-457"/>
<text text-anchor="middle" x="1076" y="-817.8" font-family="Times,serif" font-size="14.00">Content</text>
<polyline fill="none" stroke="black" points="995.5,-810 1156.5,-810 "/>
<text text-anchor="start" x="1003.5" y="-794.8" font-family="Times,serif" font-size="14.00">id :integer</text>
<text text-anchor="start" x="1003.5" y="-779.8" font-family="Times,serif" font-size="14.00">type :string</text>
<text text-anchor="start" x="1003.5" y="-764.8" font-family="Times,serif" font-size="14.00">title :string</text>
<text text-anchor="start" x="1003.5" y="-749.8" font-family="Times,serif" font-size="14.00">author :string</text>
<text text-anchor="start" x="1003.5" y="-734.8" font-family="Times,serif" font-size="14.00">body :text</text>
<text text-anchor="start" x="1003.5" y="-719.8" font-family="Times,serif" font-size="14.00">extended :text</text>
<text text-anchor="start" x="1003.5" y="-704.8" font-family="Times,serif" font-size="14.00">excerpt :text</text>
<text text-anchor="start" x="1003.5" y="-689.8" font-family="Times,serif" font-size="14.00">created_at :datetime</text>
<text text-anchor="start" x="1003.5" y="-674.8" font-family="Times,serif" font-size="14.00">updated_at :datetime</text>
<text text-anchor="start" x="1003.5" y="-659.8" font-family="Times,serif" font-size="14.00">user_id :integer</text>
<text text-anchor="start" x="1003.5" y="-644.8" font-family="Times,serif" font-size="14.00">permalink :string</text>
<text text-anchor="start" x="1003.5" y="-629.8" font-family="Times,serif" font-size="14.00">guid :string</text>
<text text-anchor="start" x="1003.5" y="-614.8" font-family="Times,serif" font-size="14.00">text_filter_id :integer</text>
<text text-anchor="start" x="1003.5" y="-599.8" font-family="Times,serif" font-size="14.00">whiteboard :text</text>
<text text-anchor="start" x="1003.5" y="-584.8" font-family="Times,serif" font-size="14.00">name :string</text>
<text text-anchor="start" x="1003.5" y="-569.8" font-family="Times,serif" font-size="14.00">published :boolean</text>
<text text-anchor="start" x="1003.5" y="-554.8" font-family="Times,serif" font-size="14.00">allow_pings :boolean</text>
<text text-anchor="start" x="1003.5" y="-539.8" font-family="Times,serif" font-size="14.00">allow_comments :boolean</text>
<text text-anchor="start" x="1003.5" y="-524.8" font-family="Times,serif" font-size="14.00">published_at :datetime</text>
<text text-anchor="start" x="1003.5" y="-509.8" font-family="Times,serif" font-size="14.00">state :string</text>
<text text-anchor="start" x="1003.5" y="-494.8" font-family="Times,serif" font-size="14.00">parent_id :integer</text>
<text text-anchor="start" x="1003.5" y="-479.8" font-family="Times,serif" font-size="14.00">settings :text</text>
<text text-anchor="start" x="1003.5" y="-464.8" font-family="Times,serif" font-size="14.00">post_type :string</text>
</g>
<!-- Redirect&#45;&gt;Content -->
<g id="edge3" class="edge"><title>Redirect&#45;&gt;Content</title>
<path fill="none" stroke="#068c23" d="M927.571,-877.708C933.099,-869.053 938.68,-860.318 944,-852 958.777,-828.894 974.497,-804.339 989.745,-780.535"/>
<polygon fill="#068c23" stroke="#068c23" points="927.455,-877.89 918.28,-883.896 924.764,-882.104 922.073,-886.318 922.073,-886.318 922.073,-886.318 924.764,-882.104 925.865,-888.74 927.455,-877.89 927.455,-877.89"/>
<polygon fill="#068c23" stroke="#068c23" points="989.945,-780.224 999.128,-774.23 992.642,-776.013 995.339,-771.803 995.339,-771.803 995.339,-771.803 992.642,-776.013 991.55,-769.376 989.945,-780.224 989.945,-780.224"/>
</g>
<!-- ConfigManager -->
<g id="node10" class="node"><title>ConfigManager</title>
<polygon fill="none" stroke="black" stroke-dasharray="1,5" points="1801.25,-1683 1698.75,-1683 1698.75,-1647 1801.25,-1647 1801.25,-1683"/>
<text text-anchor="middle" x="1750" y="-1661.3" font-family="Times,serif" font-size="14.00">ConfigManager</text>
</g>
<!-- Notification -->
<g id="node11" class="node"><title>Notification</title>
<path fill="none" stroke="black" d="M1156.5,-1C1156.5,-1 1263.5,-1 1263.5,-1 1269.5,-1 1275.5,-7 1275.5,-13 1275.5,-13 1275.5,-95 1275.5,-95 1275.5,-101 1269.5,-107 1263.5,-107 1263.5,-107 1156.5,-107 1156.5,-107 1150.5,-107 1144.5,-101 1144.5,-95 1144.5,-95 1144.5,-13 1144.5,-13 1144.5,-7 1150.5,-1 1156.5,-1"/>
<text text-anchor="middle" x="1210" y="-91.8" font-family="Times,serif" font-size="14.00">Notification</text>
<polyline fill="none" stroke="black" points="1144.5,-84 1275.5,-84 "/>
<text text-anchor="start" x="1152.5" y="-68.8" font-family="Times,serif" font-size="14.00">id :integer</text>
<text text-anchor="start" x="1152.5" y="-53.8" font-family="Times,serif" font-size="14.00">content_id :integer</text>
<text text-anchor="start" x="1152.5" y="-38.8" font-family="Times,serif" font-size="14.00">user_id :integer</text>
<text text-anchor="start" x="1152.5" y="-23.8" font-family="Times,serif" font-size="14.00">created_at :datetime</text>
<text text-anchor="start" x="1152.5" y="-8.8" font-family="Times,serif" font-size="14.00">updated_at :datetime</text>
</g>
<!-- Article -->
<g id="node12" class="node"><title>Article</title>
<path fill="none" stroke="black" d="M1055.5,-1477C1055.5,-1477 1192.5,-1477 1192.5,-1477 1198.5,-1477 1204.5,-1483 1204.5,-1489 1204.5,-1489 1204.5,-1841 1204.5,-1841 1204.5,-1847 1198.5,-1853 1192.5,-1853 1192.5,-1853 1055.5,-1853 1055.5,-1853 1049.5,-1853 1043.5,-1847 1043.5,-1841 1043.5,-1841 1043.5,-1489 1043.5,-1489 1043.5,-1483 1049.5,-1477 1055.5,-1477"/>
<text text-anchor="middle" x="1124" y="-1837.8" font-family="Times,serif" font-size="14.00">Article</text>
<polyline fill="none" stroke="black" points="1043.5,-1830 1204.5,-1830 "/>
<text text-anchor="start" x="1051.5" y="-1814.8" font-family="Times,serif" font-size="14.00">id :integer</text>
<text text-anchor="start" x="1051.5" y="-1799.8" font-family="Times,serif" font-size="14.00">type :string</text>
<text text-anchor="start" x="1051.5" y="-1784.8" font-family="Times,serif" font-size="14.00">title :string</text>
<text text-anchor="start" x="1051.5" y="-1769.8" font-family="Times,serif" font-size="14.00">author :string</text>
<text text-anchor="start" x="1051.5" y="-1754.8" font-family="Times,serif" font-size="14.00">body :text</text>
<text text-anchor="start" x="1051.5" y="-1739.8" font-family="Times,serif" font-size="14.00">extended :text</text>
<text text-anchor="start" x="1051.5" y="-1724.8" font-family="Times,serif" font-size="14.00">excerpt :text</text>
<text text-anchor="start" x="1051.5" y="-1709.8" font-family="Times,serif" font-size="14.00">created_at :datetime</text>
<text text-anchor="start" x="1051.5" y="-1694.8" font-family="Times,serif" font-size="14.00">updated_at :datetime</text>
<text text-anchor="start" x="1051.5" y="-1679.8" font-family="Times,serif" font-size="14.00">user_id :integer</text>
<text text-anchor="start" x="1051.5" y="-1664.8" font-family="Times,serif" font-size="14.00">permalink :string</text>
<text text-anchor="start" x="1051.5" y="-1649.8" font-family="Times,serif" font-size="14.00">guid :string</text>
<text text-anchor="start" x="1051.5" y="-1634.8" font-family="Times,serif" font-size="14.00">text_filter_id :integer</text>
<text text-anchor="start" x="1051.5" y="-1619.8" font-family="Times,serif" font-size="14.00">whiteboard :text</text>
<text text-anchor="start" x="1051.5" y="-1604.8" font-family="Times,serif" font-size="14.00">name :string</text>
<text text-anchor="start" x="1051.5" y="-1589.8" font-family="Times,serif" font-size="14.00">published :boolean</text>
<text text-anchor="start" x="1051.5" y="-1574.8" font-family="Times,serif" font-size="14.00">allow_pings :boolean</text>
<text text-anchor="start" x="1051.5" y="-1559.8" font-family="Times,serif" font-size="14.00">allow_comments :boolean</text>
<text text-anchor="start" x="1051.5" y="-1544.8" font-family="Times,serif" font-size="14.00">published_at :datetime</text>
<text text-anchor="start" x="1051.5" y="-1529.8" font-family="Times,serif" font-size="14.00">state :string</text>
<text text-anchor="start" x="1051.5" y="-1514.8" font-family="Times,serif" font-size="14.00">parent_id :integer</text>
<text text-anchor="start" x="1051.5" y="-1499.8" font-family="Times,serif" font-size="14.00">settings :text</text>
<text text-anchor="start" x="1051.5" y="-1484.8" font-family="Times,serif" font-size="14.00">post_type :string</text>
</g>
<!-- Article&#45;&gt;Ping -->
<g id="edge9" class="edge"><title>Article&#45;&gt;Ping</title>
<path fill="none" stroke="#c28067" d="M1035.31,-1655.07C895.888,-1636.48 624.899,-1581.28 465,-1424 428.63,-1388.23 410.328,-1332.13 401.313,-1290.51"/>
<ellipse fill="none" stroke="#c28067" cx="1039.51" cy="-1655.62" rx="4.00001" ry="4.00001"/>
<polygon fill="#c28067" stroke="#c28067" points="401.276,-1290.33 403.676,-1279.63 400.272,-1285.43 399.268,-1280.53 399.268,-1280.53 399.268,-1280.53 400.272,-1285.43 394.859,-1281.44 401.276,-1290.33 401.276,-1290.33"/>
</g>
<!-- Article&#45;&gt;Resource -->
<g id="edge12" class="edge"><title>Article&#45;&gt;Resource</title>
<path fill="none" stroke="#7f9954" d="M1035.46,-1647.22C929.453,-1622.85 752.632,-1568 644,-1458 620.488,-1434.19 602.679,-1403.51 589.306,-1372.6"/>
<ellipse fill="none" stroke="#7f9954" cx="1039.39" cy="-1648.11" rx="4.00001" ry="4.00001"/>
<polygon fill="#7f9954" stroke="#7f9954" points="589.153,-1372.24 589.449,-1361.27 587.225,-1367.62 585.297,-1363.01 585.297,-1363.01 585.297,-1363.01 587.225,-1367.62 581.145,-1364.74 589.153,-1372.24 589.153,-1372.24"/>
</g>
<!-- Article&#45;&gt;Redirect -->
<g id="edge7" class="edge"><title>Article&#45;&gt;Redirect</title>
<path fill="none" stroke="#9e8361" d="M1035.58,-1599.27C984.248,-1556.05 924.126,-1494.35 895,-1424 865.458,-1352.64 873.182,-1131.85 879.509,-1017.79"/>
<polygon fill="#9e8361" stroke="#9e8361" points="1035.72,-1599.39 1040.54,-1609.24 1039.57,-1602.58 1043.41,-1605.78 1043.41,-1605.78 1043.41,-1605.78 1039.57,-1602.58 1046.29,-1602.32 1035.72,-1599.39 1035.72,-1599.39"/>
<polygon fill="#9e8361" stroke="#9e8361" points="879.511,-1017.75 884.57,-1008.02 879.794,-1012.76 880.077,-1007.76 880.077,-1007.76 880.077,-1007.76 879.794,-1012.76 875.584,-1007.51 879.511,-1017.75 879.511,-1017.75"/>
</g>
<!-- Article&#45;&gt;Notification -->
<g id="edge4" class="edge"><title>Article&#45;&gt;Notification</title>
<path fill="none" stroke="#c9d04d" d="M1211.15,-1477.29C1211.77,-1476.85 1212.38,-1476.42 1213,-1476 1235.98,-1460.27 1435.37,-1461.46 1463,-1458 1548.12,-1447.35 1591.67,-1483.98 1653,-1424 1713.95,-1364.4 1691,-1321.25 1691,-1236 1691,-1236 1691,-1236 1691,-274 1691,-98.1674 1421.47,-62.8625 1285.93,-56.2248"/>
<ellipse fill="none" stroke="#c9d04d" cx="1207.95" cy="-1479.73" rx="4.00002" ry="4.00002"/>
<polygon fill="#c9d04d" stroke="#c9d04d" points="1285.61,-56.2104 1275.82,-51.2669 1280.62,-55.9864 1275.62,-55.7624 1275.62,-55.7624 1275.62,-55.7624 1280.62,-55.9864 1275.42,-60.2579 1285.61,-56.2104 1285.61,-56.2104"/>
</g>
<!-- Trigger -->
<g id="node13" class="node"><title>Trigger</title>
<path fill="none" stroke="black" d="M1368,-222C1368,-222 1504,-222 1504,-222 1510,-222 1516,-228 1516,-234 1516,-234 1516,-316 1516,-316 1516,-322 1510,-328 1504,-328 1504,-328 1368,-328 1368,-328 1362,-328 1356,-322 1356,-316 1356,-316 1356,-234 1356,-234 1356,-228 1362,-222 1368,-222"/>
<text text-anchor="middle" x="1436" y="-312.8" font-family="Times,serif" font-size="14.00">Trigger</text>
<polyline fill="none" stroke="black" points="1356,-305 1516,-305 "/>
<text text-anchor="start" x="1364" y="-289.8" font-family="Times,serif" font-size="14.00">id :integer</text>
<text text-anchor="start" x="1364" y="-274.8" font-family="Times,serif" font-size="14.00">pending_item_id :integer</text>
<text text-anchor="start" x="1364" y="-259.8" font-family="Times,serif" font-size="14.00">pending_item_type :string</text>
<text text-anchor="start" x="1364" y="-244.8" font-family="Times,serif" font-size="14.00">due_at :datetime</text>
<text text-anchor="start" x="1364" y="-229.8" font-family="Times,serif" font-size="14.00">trigger_method :string</text>
</g>
<!-- Article&#45;&gt;Trigger -->
<g id="edge8" class="edge"><title>Article&#45;&gt;Trigger</title>
<path fill="none" stroke="#a2192c" d="M1210.82,-1477.61C1211.54,-1477.07 1212.27,-1476.53 1213,-1476 1250.64,-1448.75 1597.21,-1458.8 1628,-1424 1699.54,-1343.14 1580.55,-557.584 1544,-456 1528.76,-413.64 1503.08,-370.248 1480.58,-336.684"/>
<ellipse fill="none" stroke="#a2192c" cx="1207.62" cy="-1480.2" rx="4.00002" ry="4.00002"/>
<polygon fill="#a2192c" stroke="#a2192c" points="1480.56,-336.644 1478.66,-325.842 1477.75,-332.506 1474.94,-328.369 1474.94,-328.369 1474.94,-328.369 1477.75,-332.506 1471.22,-330.896 1480.56,-336.644 1480.56,-336.644"/>
</g>
<!-- Article&#45;&gt;Redirection -->
<g id="edge6" class="edge"><title>Article&#45;&gt;Redirection</title>
<path fill="none" stroke="#aa36d8" d="M1035.29,-1645.58C928.235,-1618.02 753.147,-1554.67 677,-1424 565.463,-1232.59 728.948,-514.294 775.331,-323.033"/>
<ellipse fill="none" stroke="#aa36d8" cx="1039.31" cy="-1646.6" rx="4.00001" ry="4.00001"/>
<polygon fill="#aa36d8" stroke="#aa36d8" points="775.34,-322.994 782.078,-314.343 776.523,-318.136 777.706,-313.278 777.706,-313.278 777.706,-313.278 776.523,-318.136 773.334,-312.214 775.34,-322.994 775.34,-322.994"/>
</g>
<!-- Tag -->
<g id="node15" class="node"><title>Tag</title>
<path fill="none" stroke="black" d="M1731.5,-1182C1731.5,-1182 1838.5,-1182 1838.5,-1182 1844.5,-1182 1850.5,-1188 1850.5,-1194 1850.5,-1194 1850.5,-1276 1850.5,-1276 1850.5,-1282 1844.5,-1288 1838.5,-1288 1838.5,-1288 1731.5,-1288 1731.5,-1288 1725.5,-1288 1719.5,-1282 1719.5,-1276 1719.5,-1276 1719.5,-1194 1719.5,-1194 1719.5,-1188 1725.5,-1182 1731.5,-1182"/>
<text text-anchor="middle" x="1785" y="-1272.8" font-family="Times,serif" font-size="14.00">Tag</text>
<polyline fill="none" stroke="black" points="1719.5,-1265 1850.5,-1265 "/>
<text text-anchor="start" x="1727.5" y="-1249.8" font-family="Times,serif" font-size="14.00">id :integer</text>
<text text-anchor="start" x="1727.5" y="-1234.8" font-family="Times,serif" font-size="14.00">name :string</text>
<text text-anchor="start" x="1727.5" y="-1219.8" font-family="Times,serif" font-size="14.00">created_at :datetime</text>
<text text-anchor="start" x="1727.5" y="-1204.8" font-family="Times,serif" font-size="14.00">updated_at :datetime</text>
<text text-anchor="start" x="1727.5" y="-1189.8" font-family="Times,serif" font-size="14.00">display_name :string</text>
</g>
<!-- Article&#45;&gt;Tag -->
<g id="edge19" class="edge"><title>Article&#45;&gt;Tag</title>
<path fill="none" stroke="#5041ce" d="M1212.73,-1476.18C1212.82,-1476.12 1212.91,-1476.06 1213,-1476 1258.68,-1445.9 1660.82,-1490.26 1705,-1458 1755.09,-1421.42 1773.92,-1350.46 1780.94,-1298.57"/>
<polygon fill="#5041ce" stroke="#5041ce" points="1212.78,-1476.15 1202.04,-1478.36 1208.72,-1479.08 1204.67,-1482.01 1204.67,-1482.01 1204.67,-1482.01 1208.72,-1479.08 1207.31,-1485.65 1212.78,-1476.15 1212.78,-1476.15"/>
<polygon fill="#5041ce" stroke="#5041ce" points="1780.96,-1298.39 1786.65,-1289.02 1781.57,-1293.43 1782.19,-1288.47 1782.19,-1288.47 1782.19,-1288.47 1781.57,-1293.43 1777.72,-1287.91 1780.96,-1298.39 1780.96,-1298.39"/>
</g>
<!-- Trackback -->
<g id="node16" class="node"><title>Trackback</title>
<path fill="none" stroke="black" d="M698.5,-1062C698.5,-1062 835.5,-1062 835.5,-1062 841.5,-1062 847.5,-1068 847.5,-1074 847.5,-1074 847.5,-1396 847.5,-1396 847.5,-1402 841.5,-1408 835.5,-1408 835.5,-1408 698.5,-1408 698.5,-1408 692.5,-1408 686.5,-1402 686.5,-1396 686.5,-1396 686.5,-1074 686.5,-1074 686.5,-1068 692.5,-1062 698.5,-1062"/>
<text text-anchor="middle" x="767" y="-1392.8" font-family="Times,serif" font-size="14.00">Trackback</text>
<polyline fill="none" stroke="black" points="686.5,-1385 847.5,-1385 "/>
<text text-anchor="start" x="694.5" y="-1369.8" font-family="Times,serif" font-size="14.00">id :integer</text>
<text text-anchor="start" x="694.5" y="-1354.8" font-family="Times,serif" font-size="14.00">type :string</text>
<text text-anchor="start" x="694.5" y="-1339.8" font-family="Times,serif" font-size="14.00">title :string</text>
<text text-anchor="start" x="694.5" y="-1324.8" font-family="Times,serif" font-size="14.00">author :string</text>
<text text-anchor="start" x="694.5" y="-1309.8" font-family="Times,serif" font-size="14.00">body :text</text>
<text text-anchor="start" x="694.5" y="-1294.8" font-family="Times,serif" font-size="14.00">excerpt :text</text>
<text text-anchor="start" x="694.5" y="-1279.8" font-family="Times,serif" font-size="14.00">created_at :datetime</text>
<text text-anchor="start" x="694.5" y="-1264.8" font-family="Times,serif" font-size="14.00">updated_at :datetime</text>
<text text-anchor="start" x="694.5" y="-1249.8" font-family="Times,serif" font-size="14.00">user_id :integer</text>
<text text-anchor="start" x="694.5" y="-1234.8" font-family="Times,serif" font-size="14.00">guid :string</text>
<text text-anchor="start" x="694.5" y="-1219.8" font-family="Times,serif" font-size="14.00">text_filter_id :integer</text>
<text text-anchor="start" x="694.5" y="-1204.8" font-family="Times,serif" font-size="14.00">whiteboard :text</text>
<text text-anchor="start" x="694.5" y="-1189.8" font-family="Times,serif" font-size="14.00">article_id :integer</text>
<text text-anchor="start" x="694.5" y="-1174.8" font-family="Times,serif" font-size="14.00">email :string</text>
<text text-anchor="start" x="694.5" y="-1159.8" font-family="Times,serif" font-size="14.00">url :string</text>
<text text-anchor="start" x="694.5" y="-1144.8" font-family="Times,serif" font-size="14.00">ip :string</text>
<text text-anchor="start" x="694.5" y="-1129.8" font-family="Times,serif" font-size="14.00">blog_name :string</text>
<text text-anchor="start" x="694.5" y="-1114.8" font-family="Times,serif" font-size="14.00">published :boolean</text>
<text text-anchor="start" x="694.5" y="-1099.8" font-family="Times,serif" font-size="14.00">published_at :datetime</text>
<text text-anchor="start" x="694.5" y="-1084.8" font-family="Times,serif" font-size="14.00">state :string</text>
<text text-anchor="start" x="694.5" y="-1069.8" font-family="Times,serif" font-size="14.00">status_confirmed :boolean</text>
</g>
<!-- Article&#45;&gt;Trackback -->
<g id="edge10" class="edge"><title>Article&#45;&gt;Trackback</title>
<path fill="none" stroke="#f16268" d="M1035.67,-1643.52C945.36,-1617.36 809.835,-1562.38 748,-1458 740.702,-1445.68 735.912,-1432.28 733.057,-1418.38"/>
<ellipse fill="none" stroke="#f16268" cx="1039.6" cy="-1644.64" rx="4.00001" ry="4.00001"/>
<polygon fill="#f16268" stroke="#f16268" points="732.997,-1418.02 735.748,-1407.41 732.155,-1413.1 731.312,-1408.17 731.312,-1408.17 731.312,-1408.17 732.155,-1413.1 726.876,-1408.92 732.997,-1418.02 732.997,-1418.02"/>
</g>
<!-- Article&#45;&gt;Trackback -->
<g id="edge17" class="edge"><title>Article&#45;&gt;Trackback</title>
<path fill="none" stroke="#2d0a1e" d="M1035.8,-1640.61C950.297,-1612.72 825.36,-1556.95 768,-1458 760.775,-1445.54 755.639,-1431.98 752.135,-1417.92"/>
<ellipse fill="none" stroke="#2d0a1e" cx="1039.62" cy="-1641.83" rx="4.00001" ry="4.00001"/>
<polygon fill="#2d0a1e" stroke="#2d0a1e" points="752.125,-1417.87 754.358,-1407.14 751.045,-1412.99 749.965,-1408.11 749.965,-1408.11 749.965,-1408.11 751.045,-1412.99 745.571,-1409.08 752.125,-1417.87 752.125,-1417.87"/>
<text text-anchor="middle" x="827" y="-1446.3" font-family="Times,serif" font-size="14.00">published_trackbacks</text>
</g>
<!-- Comment -->
<g id="node17" class="node"><title>Comment</title>
<path fill="none" stroke="black" d="M916.5,-1062C916.5,-1062 1053.5,-1062 1053.5,-1062 1059.5,-1062 1065.5,-1068 1065.5,-1074 1065.5,-1074 1065.5,-1396 1065.5,-1396 1065.5,-1402 1059.5,-1408 1053.5,-1408 1053.5,-1408 916.5,-1408 916.5,-1408 910.5,-1408 904.5,-1402 904.5,-1396 904.5,-1396 904.5,-1074 904.5,-1074 904.5,-1068 910.5,-1062 916.5,-1062"/>
<text text-anchor="middle" x="985" y="-1392.8" font-family="Times,serif" font-size="14.00">Comment</text>
<polyline fill="none" stroke="black" points="904.5,-1385 1065.5,-1385 "/>
<text text-anchor="start" x="912.5" y="-1369.8" font-family="Times,serif" font-size="14.00">id :integer</text>
<text text-anchor="start" x="912.5" y="-1354.8" font-family="Times,serif" font-size="14.00">type :string</text>
<text text-anchor="start" x="912.5" y="-1339.8" font-family="Times,serif" font-size="14.00">title :string</text>
<text text-anchor="start" x="912.5" y="-1324.8" font-family="Times,serif" font-size="14.00">author :string</text>
<text text-anchor="start" x="912.5" y="-1309.8" font-family="Times,serif" font-size="14.00">body :text</text>
<text text-anchor="start" x="912.5" y="-1294.8" font-family="Times,serif" font-size="14.00">excerpt :text</text>
<text text-anchor="start" x="912.5" y="-1279.8" font-family="Times,serif" font-size="14.00">created_at :datetime</text>
<text text-anchor="start" x="912.5" y="-1264.8" font-family="Times,serif" font-size="14.00">updated_at :datetime</text>
<text text-anchor="start" x="912.5" y="-1249.8" font-family="Times,serif" font-size="14.00">user_id :integer</text>
<text text-anchor="start" x="912.5" y="-1234.8" font-family="Times,serif" font-size="14.00">guid :string</text>
<text text-anchor="start" x="912.5" y="-1219.8" font-family="Times,serif" font-size="14.00">text_filter_id :integer</text>
<text text-anchor="start" x="912.5" y="-1204.8" font-family="Times,serif" font-size="14.00">whiteboard :text</text>
<text text-anchor="start" x="912.5" y="-1189.8" font-family="Times,serif" font-size="14.00">article_id :integer</text>
<text text-anchor="start" x="912.5" y="-1174.8" font-family="Times,serif" font-size="14.00">email :string</text>
<text text-anchor="start" x="912.5" y="-1159.8" font-family="Times,serif" font-size="14.00">url :string</text>
<text text-anchor="start" x="912.5" y="-1144.8" font-family="Times,serif" font-size="14.00">ip :string</text>
<text text-anchor="start" x="912.5" y="-1129.8" font-family="Times,serif" font-size="14.00">blog_name :string</text>
<text text-anchor="start" x="912.5" y="-1114.8" font-family="Times,serif" font-size="14.00">published :boolean</text>
<text text-anchor="start" x="912.5" y="-1099.8" font-family="Times,serif" font-size="14.00">published_at :datetime</text>
<text text-anchor="start" x="912.5" y="-1084.8" font-family="Times,serif" font-size="14.00">state :string</text>
<text text-anchor="start" x="912.5" y="-1069.8" font-family="Times,serif" font-size="14.00">status_confirmed :boolean</text>
</g>
<!-- Article&#45;&gt;Comment -->
<g id="edge15" class="edge"><title>Article&#45;&gt;Comment</title>
<path fill="none" stroke="#0824f4" d="M1085.18,-1468.98C1082.58,-1459.81 1079.85,-1450.78 1077,-1442 1074.39,-1433.97 1071.56,-1425.83 1068.58,-1417.65"/>
<ellipse fill="none" stroke="#0824f4" cx="1086.26" cy="-1472.86" rx="4.00001" ry="4.00001"/>
<polygon fill="#0824f4" stroke="#0824f4" points="1068.5,-1417.42 1069.23,-1406.48 1066.75,-1412.74 1065.01,-1408.05 1065.01,-1408.05 1065.01,-1408.05 1066.75,-1412.74 1060.79,-1409.62 1068.5,-1417.42 1068.5,-1417.42"/>
</g>
<!-- Article&#45;&gt;Comment -->
<g id="edge16" class="edge"><title>Article&#45;&gt;Comment</title>
<path fill="none" stroke="#902107" d="M1037.87,-1584.83C1005.66,-1549.53 972.829,-1505.26 956,-1458 951.436,-1445.18 948.663,-1431.72 947.275,-1418.03"/>
<ellipse fill="none" stroke="#902107" cx="1040.73" cy="-1587.93" rx="4.00002" ry="4.00002"/>
<polygon fill="#902107" stroke="#902107" points="947.272,-1417.99 950.99,-1407.68 946.888,-1413.01 946.504,-1408.02 946.504,-1408.02 946.504,-1408.02 946.888,-1413.01 942.017,-1408.37 947.272,-1417.99 947.272,-1417.99"/>
<text text-anchor="middle" x="1014.5" y="-1446.3" font-family="Times,serif" font-size="14.00">published_comments</text>
</g>
<!-- Categorization -->
<g id="node22" class="node"><title>Categorization</title>
<path fill="none" stroke="black" d="M1840,-901.5C1840,-901.5 1942,-901.5 1942,-901.5 1948,-901.5 1954,-907.5 1954,-913.5 1954,-913.5 1954,-980.5 1954,-980.5 1954,-986.5 1948,-992.5 1942,-992.5 1942,-992.5 1840,-992.5 1840,-992.5 1834,-992.5 1828,-986.5 1828,-980.5 1828,-980.5 1828,-913.5 1828,-913.5 1828,-907.5 1834,-901.5 1840,-901.5"/>
<text text-anchor="middle" x="1891" y="-977.3" font-family="Times,serif" font-size="14.00">Categorization</text>
<polyline fill="none" stroke="black" points="1828,-969.5 1954,-969.5 "/>
<text text-anchor="start" x="1836" y="-954.3" font-family="Times,serif" font-size="14.00">id :integer</text>
<text text-anchor="start" x="1836" y="-939.3" font-family="Times,serif" font-size="14.00">article_id :integer</text>
<text text-anchor="start" x="1836" y="-924.3" font-family="Times,serif" font-size="14.00">category_id :integer</text>
<text text-anchor="start" x="1836" y="-909.3" font-family="Times,serif" font-size="14.00">is_primary :boolean</text>
</g>
<!-- Article&#45;&gt;Categorization -->
<g id="edge13" class="edge"><title>Article&#45;&gt;Categorization</title>
<path fill="none" stroke="#4578f2" d="M1211.13,-1477.25C1211.75,-1476.83 1212.37,-1476.41 1213,-1476 1260.65,-1444.65 1669.54,-1466.11 1726,-1458 1786.39,-1449.32 1819.98,-1470.91 1859,-1424 1885.38,-1392.28 1890.08,-1121.62 1890.87,-1003.15"/>
<ellipse fill="none" stroke="#4578f2" cx="1207.89" cy="-1479.63" rx="4.00002" ry="4.00002"/>
<polygon fill="#4578f2" stroke="#4578f2" points="1890.87,-1002.85 1895.43,-992.878 1890.9,-997.851 1890.93,-992.851 1890.93,-992.851 1890.93,-992.851 1890.9,-997.851 1886.43,-992.824 1890.87,-1002.85 1890.87,-1002.85"/>
</g>
<!-- Category -->
<g id="node23" class="node"><title>Category</title>
<path fill="none" stroke="black" d="M1919.5,-1167C1919.5,-1167 2008.5,-1167 2008.5,-1167 2014.5,-1167 2020.5,-1173 2020.5,-1179 2020.5,-1179 2020.5,-1291 2020.5,-1291 2020.5,-1297 2014.5,-1303 2008.5,-1303 2008.5,-1303 1919.5,-1303 1919.5,-1303 1913.5,-1303 1907.5,-1297 1907.5,-1291 1907.5,-1291 1907.5,-1179 1907.5,-1179 1907.5,-1173 1913.5,-1167 1919.5,-1167"/>
<text text-anchor="middle" x="1964" y="-1287.8" font-family="Times,serif" font-size="14.00">Category</text>
<polyline fill="none" stroke="black" points="1907.5,-1280 2020.5,-1280 "/>
<text text-anchor="start" x="1915.5" y="-1264.8" font-family="Times,serif" font-size="14.00">id :integer</text>
<text text-anchor="start" x="1915.5" y="-1249.8" font-family="Times,serif" font-size="14.00">name :string</text>
<text text-anchor="start" x="1915.5" y="-1234.8" font-family="Times,serif" font-size="14.00">position :integer</text>
<text text-anchor="start" x="1915.5" y="-1219.8" font-family="Times,serif" font-size="14.00">permalink :string</text>
<text text-anchor="start" x="1915.5" y="-1204.8" font-family="Times,serif" font-size="14.00">keywords :text</text>
<text text-anchor="start" x="1915.5" y="-1189.8" font-family="Times,serif" font-size="14.00">description :text</text>
<text text-anchor="start" x="1915.5" y="-1174.8" font-family="Times,serif" font-size="14.00">parent_id :integer</text>
</g>
<!-- Article&#45;&gt;Category -->
<g id="edge14" class="edge"><title>Article&#45;&gt;Category</title>
<path fill="none" stroke="#c199ae" d="M1212.73,-1476.18C1212.82,-1476.12 1212.91,-1476.06 1213,-1476 1276.32,-1434.73 1832.55,-1503.37 1893,-1458 1937.51,-1424.59 1954.69,-1363.01 1961.05,-1313.17"/>
<polygon fill="#c199ae" stroke="#c199ae" points="1212.78,-1476.14 1202.03,-1478.31 1208.71,-1479.06 1204.65,-1481.97 1204.65,-1481.97 1204.65,-1481.97 1208.71,-1479.06 1207.27,-1485.63 1212.78,-1476.14 1212.78,-1476.14"/>
<polygon fill="#c199ae" stroke="#c199ae" points="1961.07,-1312.98 1966.69,-1303.56 1961.65,-1308.01 1962.22,-1303.05 1962.22,-1303.05 1962.22,-1303.05 1961.65,-1308.01 1957.75,-1302.53 1961.07,-1312.98 1961.07,-1312.98"/>
</g>
<!-- User -->
<g id="node24" class="node"><title>User</title>
<path fill="none" stroke="black" d="M1108.5,-147C1108.5,-147 1311.5,-147 1311.5,-147 1317.5,-147 1323.5,-153 1323.5,-159 1323.5,-159 1323.5,-391 1323.5,-391 1323.5,-397 1317.5,-403 1311.5,-403 1311.5,-403 1108.5,-403 1108.5,-403 1102.5,-403 1096.5,-397 1096.5,-391 1096.5,-391 1096.5,-159 1096.5,-159 1096.5,-153 1102.5,-147 1108.5,-147"/>
<text text-anchor="middle" x="1210" y="-387.8" font-family="Times,serif" font-size="14.00">User</text>
<polyline fill="none" stroke="black" points="1096.5,-380 1323.5,-380 "/>
<text text-anchor="start" x="1104.5" y="-364.8" font-family="Times,serif" font-size="14.00">id :integer</text>
<text text-anchor="start" x="1104.5" y="-349.8" font-family="Times,serif" font-size="14.00">login :string</text>
<text text-anchor="start" x="1104.5" y="-334.8" font-family="Times,serif" font-size="14.00">password :string</text>
<text text-anchor="start" x="1104.5" y="-319.8" font-family="Times,serif" font-size="14.00">email :text</text>
<text text-anchor="start" x="1104.5" y="-304.8" font-family="Times,serif" font-size="14.00">name :text</text>
<text text-anchor="start" x="1104.5" y="-289.8" font-family="Times,serif" font-size="14.00">notify_via_email :boolean</text>
<text text-anchor="start" x="1104.5" y="-274.8" font-family="Times,serif" font-size="14.00">notify_on_new_articles :boolean</text>
<text text-anchor="start" x="1104.5" y="-259.8" font-family="Times,serif" font-size="14.00">notify_on_comments :boolean</text>
<text text-anchor="start" x="1104.5" y="-244.8" font-family="Times,serif" font-size="14.00">profile_id :integer</text>
<text text-anchor="start" x="1104.5" y="-229.8" font-family="Times,serif" font-size="14.00">remember_token :string</text>
<text text-anchor="start" x="1104.5" y="-214.8" font-family="Times,serif" font-size="14.00">remember_token_expires_at :datetime</text>
<text text-anchor="start" x="1104.5" y="-199.8" font-family="Times,serif" font-size="14.00">text_filter_id :string</text>
<text text-anchor="start" x="1104.5" y="-184.8" font-family="Times,serif" font-size="14.00">state :string</text>
<text text-anchor="start" x="1104.5" y="-169.8" font-family="Times,serif" font-size="14.00">last_connection :datetime</text>
<text text-anchor="start" x="1104.5" y="-154.8" font-family="Times,serif" font-size="14.00">settings :text</text>
</g>
<!-- Article&#45;&gt;User -->
<g id="edge5" class="edge"><title>Article&#45;&gt;User</title>
<path fill="none" stroke="#5cc0c1" d="M1211.69,-1477.32C1212.12,-1476.88 1212.56,-1476.44 1213,-1476 1226.21,-1462.78 1240.55,-1473.49 1251,-1458 1259.47,-1445.45 1252.56,-1439.13 1253,-1424 1257.93,-1256.07 1298.16,-1207.82 1253,-1046 1247.69,-1026.98 1235.31,-1027.02 1230,-1008 1215.43,-955.773 1202.03,-932.452 1230,-886 1238.82,-871.352 1255.18,-882.648 1264,-868 1315.33,-782.75 1233.36,-521.068 1224,-422 1223.73,-419.089 1223.45,-416.145 1223.17,-413.177"/>
<polygon fill="#5cc0c1" stroke="#5cc0c1" points="1211.61,-1477.41 1201.51,-1481.67 1208.21,-1481.07 1204.8,-1484.73 1204.8,-1484.73 1204.8,-1484.73 1208.21,-1481.07 1208.1,-1487.79 1211.61,-1477.41 1211.61,-1477.41"/>
<polygon fill="#5cc0c1" stroke="#5cc0c1" points="1223.15,-412.963 1226.68,-402.582 1222.67,-407.985 1222.2,-403.007 1222.2,-403.007 1222.2,-403.007 1222.67,-407.985 1217.72,-403.432 1223.15,-412.963 1223.15,-412.963"/>
<text text-anchor="middle" x="1263.5" y="-943.3" font-family="Times,serif" font-size="14.00">notify_users</text>
</g>
<!-- Feedback -->
<g id="node28" class="node"><title>Feedback</title>
<path fill="none" stroke="black" d="M1095.5,-1062C1095.5,-1062 1232.5,-1062 1232.5,-1062 1238.5,-1062 1244.5,-1068 1244.5,-1074 1244.5,-1074 1244.5,-1396 1244.5,-1396 1244.5,-1402 1238.5,-1408 1232.5,-1408 1232.5,-1408 1095.5,-1408 1095.5,-1408 1089.5,-1408 1083.5,-1402 1083.5,-1396 1083.5,-1396 1083.5,-1074 1083.5,-1074 1083.5,-1068 1089.5,-1062 1095.5,-1062"/>
<text text-anchor="middle" x="1164" y="-1392.8" font-family="Times,serif" font-size="14.00">Feedback</text>
<polyline fill="none" stroke="black" points="1083.5,-1385 1244.5,-1385 "/>
<text text-anchor="start" x="1091.5" y="-1369.8" font-family="Times,serif" font-size="14.00">id :integer</text>
<text text-anchor="start" x="1091.5" y="-1354.8" font-family="Times,serif" font-size="14.00">type :string</text>
<text text-anchor="start" x="1091.5" y="-1339.8" font-family="Times,serif" font-size="14.00">title :string</text>
<text text-anchor="start" x="1091.5" y="-1324.8" font-family="Times,serif" font-size="14.00">author :string</text>
<text text-anchor="start" x="1091.5" y="-1309.8" font-family="Times,serif" font-size="14.00">body :text</text>
<text text-anchor="start" x="1091.5" y="-1294.8" font-family="Times,serif" font-size="14.00">excerpt :text</text>
<text text-anchor="start" x="1091.5" y="-1279.8" font-family="Times,serif" font-size="14.00">created_at :datetime</text>
<text text-anchor="start" x="1091.5" y="-1264.8" font-family="Times,serif" font-size="14.00">updated_at :datetime</text>
<text text-anchor="start" x="1091.5" y="-1249.8" font-family="Times,serif" font-size="14.00">user_id :integer</text>
<text text-anchor="start" x="1091.5" y="-1234.8" font-family="Times,serif" font-size="14.00">guid :string</text>
<text text-anchor="start" x="1091.5" y="-1219.8" font-family="Times,serif" font-size="14.00">text_filter_id :integer</text>
<text text-anchor="start" x="1091.5" y="-1204.8" font-family="Times,serif" font-size="14.00">whiteboard :text</text>
<text text-anchor="start" x="1091.5" y="-1189.8" font-family="Times,serif" font-size="14.00">article_id :integer</text>
<text text-anchor="start" x="1091.5" y="-1174.8" font-family="Times,serif" font-size="14.00">email :string</text>
<text text-anchor="start" x="1091.5" y="-1159.8" font-family="Times,serif" font-size="14.00">url :string</text>
<text text-anchor="start" x="1091.5" y="-1144.8" font-family="Times,serif" font-size="14.00">ip :string</text>
<text text-anchor="start" x="1091.5" y="-1129.8" font-family="Times,serif" font-size="14.00">blog_name :string</text>
<text text-anchor="start" x="1091.5" y="-1114.8" font-family="Times,serif" font-size="14.00">published :boolean</text>
<text text-anchor="start" x="1091.5" y="-1099.8" font-family="Times,serif" font-size="14.00">published_at :datetime</text>
<text text-anchor="start" x="1091.5" y="-1084.8" font-family="Times,serif" font-size="14.00">state :string</text>
<text text-anchor="start" x="1091.5" y="-1069.8" font-family="Times,serif" font-size="14.00">status_confirmed :boolean</text>
</g>
<!-- Article&#45;&gt;Feedback -->
<g id="edge11" class="edge"><title>Article&#45;&gt;Feedback</title>
<path fill="none" stroke="#89418d" d="M1209.3,-1480.96C1210.52,-1479.28 1211.75,-1477.63 1213,-1476 1220.46,-1466.23 1228.86,-1469.17 1234,-1458 1239.82,-1445.35 1242.8,-1432.08 1243.61,-1418.58"/>
<ellipse fill="none" stroke="#89418d" cx="1206.96" cy="-1484.23" rx="4.00002" ry="4.00002"/>
<polygon fill="#89418d" stroke="#89418d" points="1243.62,-1418.23 1248.31,-1408.32 1243.72,-1413.23 1243.81,-1408.23 1243.81,-1408.23 1243.81,-1408.23 1243.72,-1413.23 1239.31,-1408.14 1243.62,-1418.23 1243.62,-1418.23"/>
</g>
<!-- Article&#45;&gt;Feedback -->
<g id="edge18" class="edge"><title>Article&#45;&gt;Feedback</title>
<path fill="none" stroke="#4de5fd" d="M1118.84,-1468.48C1119.39,-1459.52 1120.11,-1450.66 1121,-1442 1121.8,-1434.21 1122.78,-1426.27 1123.88,-1418.28"/>
<ellipse fill="none" stroke="#4de5fd" cx="1118.59" cy="-1472.73" rx="4" ry="4"/>
<polygon fill="#4de5fd" stroke="#4de5fd" points="1123.92,-1418.02 1129.8,-1408.77 1124.63,-1413.07 1125.35,-1408.12 1125.35,-1408.12 1125.35,-1408.12 1124.63,-1413.07 1120.9,-1407.48 1123.92,-1418.02 1123.92,-1418.02"/>
<text text-anchor="middle" x="1175.5" y="-1446.3" font-family="Times,serif" font-size="14.00">published_feedback</text>
</g>
<!-- Trackback&#45;&gt;Redirect -->
<g id="edge23" class="edge"><title>Trackback&#45;&gt;Redirect</title>
<path fill="none" stroke="#9b21d3" d="M841.278,-1052.43C846.304,-1040.15 851.161,-1028.27 855.687,-1017.21"/>
<polygon fill="#9b21d3" stroke="#9b21d3" points="841.209,-1052.6 833.257,-1060.15 839.316,-1057.23 837.422,-1061.86 837.422,-1061.86 837.422,-1061.86 839.316,-1057.23 841.587,-1063.56 841.209,-1052.6 841.209,-1052.6"/>
<polygon fill="#9b21d3" stroke="#9b21d3" points="855.788,-1016.96 863.74,-1009.41 857.682,-1012.33 859.575,-1007.71 859.575,-1007.71 859.575,-1007.71 857.682,-1012.33 855.41,-1006 855.788,-1016.96 855.788,-1016.96"/>
</g>
<!-- Trackback&#45;&gt;Notification -->
<g id="edge20" class="edge"><title>Trackback&#45;&gt;Notification</title>
<path fill="none" stroke="#9c3c74" d="M692.33,-1053.96C607.374,-817.029 505.951,-400.867 718,-146 770.012,-83.4859 1009.13,-63.7374 1133.83,-57.6386"/>
<ellipse fill="none" stroke="#9c3c74" cx="693.734" cy="-1057.85" rx="4.00001" ry="4.00001"/>
<polygon fill="#9c3c74" stroke="#9c3c74" points="1134.08,-57.6269 1144.29,-61.651 1139.08,-57.3914 1144.07,-57.156 1144.07,-57.156 1144.07,-57.156 1139.08,-57.3914 1143.86,-52.661 1134.08,-57.6269 1134.08,-57.6269"/>
</g>
<!-- Trackback&#45;&gt;Trigger -->
<g id="edge24" class="edge"><title>Trackback&#45;&gt;Trigger</title>
<path fill="none" stroke="#a48ce2" d="M853.292,-1079.92C865.787,-1066.79 879.681,-1055.08 895,-1046 970.297,-1001.39 1220.13,-1064.46 1287,-1008 1336.26,-966.406 1310.6,-930.846 1325,-868 1336.75,-816.726 1398.6,-480.324 1424.54,-338.689"/>
<ellipse fill="none" stroke="#a48ce2" cx="850.358" cy="-1083.11" rx="4.00002" ry="4.00002"/>
<polygon fill="#a48ce2" stroke="#a48ce2" points="1424.62,-338.265 1430.84,-329.239 1425.52,-333.347 1426.42,-328.429 1426.42,-328.429 1426.42,-328.429 1425.52,-333.347 1421.99,-327.618 1424.62,-338.265 1424.62,-338.265"/>
</g>
<!-- Trackback&#45;&gt;Redirection -->
<g id="edge22" class="edge"><title>Trackback&#45;&gt;Redirection</title>
<path fill="none" stroke="#1af0ba" d="M770.764,-1053.71C775.482,-827.736 783.281,-454.151 786.016,-323.149"/>
<ellipse fill="none" stroke="#1af0ba" cx="770.676" cy="-1057.9" rx="4" ry="4"/>
<polygon fill="#1af0ba" stroke="#1af0ba" points="786.018,-323.045 790.726,-313.141 786.122,-318.046 786.227,-313.047 786.227,-313.047 786.227,-313.047 786.122,-318.046 781.728,-312.953 786.018,-323.045 786.018,-323.045"/>
</g>
<!-- Trackback&#45;&gt;User -->
<g id="edge21" class="edge"><title>Trackback&#45;&gt;User</title>
<path fill="none" stroke="#73a712" d="M853.872,-1091.75C866.657,-1075.45 880.459,-1059.76 895,-1046 918.749,-1023.52 941.206,-1036.06 958,-1008 1021.08,-902.612 939.664,-569.749 986,-456 1005.63,-407.812 1046.44,-369.012 1087.92,-339.948"/>
<polygon fill="#73a712" stroke="#73a712" points="853.777,-1091.88 844.112,-1097.06 850.728,-1095.84 847.678,-1099.8 847.678,-1099.8 847.678,-1099.8 850.728,-1095.84 851.245,-1102.55 853.777,-1091.88 853.777,-1091.88"/>
<polygon fill="#73a712" stroke="#73a712" points="1087.97,-339.915 1098.77,-337.978 1092.1,-337.09 1096.22,-334.265 1096.22,-334.265 1096.22,-334.265 1092.1,-337.09 1093.68,-330.552 1087.97,-339.915 1087.97,-339.915"/>
<text text-anchor="middle" x="1017.5" y="-856.3" font-family="Times,serif" font-size="14.00">notify_users</text>
</g>
<!-- Comment&#45;&gt;Redirect -->
<g id="edge28" class="edge"><title>Comment&#45;&gt;Redirect</title>
<path fill="none" stroke="#9f66e2" d="M920.723,-1051.99C916.472,-1039.95 912.362,-1028.31 908.526,-1017.45"/>
<polygon fill="#9f66e2" stroke="#9f66e2" points="920.878,-1052.43 919.965,-1063.36 922.543,-1057.14 924.208,-1061.86 924.208,-1061.86 924.208,-1061.86 922.543,-1057.14 928.451,-1060.36 920.878,-1052.43 920.878,-1052.43"/>
<polygon fill="#9f66e2" stroke="#9f66e2" points="908.415,-1017.14 909.328,-1006.21 906.75,-1012.42 905.085,-1007.71 905.085,-1007.71 905.085,-1007.71 906.75,-1012.42 900.842,-1009.2 908.415,-1017.14 908.415,-1017.14"/>
</g>
<!-- Comment&#45;&gt;Notification -->
<g id="edge25" class="edge"><title>Comment&#45;&gt;Notification</title>
<path fill="none" stroke="#d6d08c" d="M975.151,-1053.46C971.857,-984.775 968.614,-905.791 967,-834 960.109,-527.556 830.991,-391.145 1015,-146 1043.82,-107.609 1092.83,-84.8312 1134.51,-71.6653"/>
<ellipse fill="none" stroke="#d6d08c" cx="975.359" cy="-1057.79" rx="4" ry="4"/>
<polygon fill="#d6d08c" stroke="#d6d08c" points="1134.53,-71.6587 1145.41,-73.0676 1139.32,-70.2097 1144.1,-68.7607 1144.1,-68.7607 1144.1,-68.7607 1139.32,-70.2097 1142.8,-64.4538 1134.53,-71.6587 1134.53,-71.6587"/>
</g>
<!-- Comment&#45;&gt;Trigger -->
<g id="edge29" class="edge"><title>Comment&#45;&gt;Trigger</title>
<path fill="none" stroke="#5cc5a2" d="M1060.83,-1056.26C1064.99,-1052.57 1069.38,-1049.13 1074,-1046 1127.27,-1009.91 1316.72,-1072.71 1363,-1028 1412.26,-980.415 1429.73,-509.931 1434.5,-338.269"/>
<ellipse fill="none" stroke="#5cc5a2" cx="1057.8" cy="-1059.12" rx="4.00002" ry="4.00002"/>
<polygon fill="#5cc5a2" stroke="#5cc5a2" points="1434.5,-338.125 1439.27,-328.251 1434.64,-333.127 1434.77,-328.129 1434.77,-328.129 1434.77,-328.129 1434.64,-333.127 1430.27,-328.006 1434.5,-338.125 1434.5,-338.125"/>
</g>
<!-- Comment&#45;&gt;Redirection -->
<g id="edge27" class="edge"><title>Comment&#45;&gt;Redirection</title>
<path fill="none" stroke="#f7da4d" d="M899.45,-1098.97C885.741,-1080.5 871.076,-1062.31 856,-1046 837.766,-1026.27 820.739,-1032.16 809,-1008 780.543,-949.43 804.555,-487.02 801,-422 799.192,-388.939 795.609,-351.796 792.52,-323.247"/>
<ellipse fill="none" stroke="#f7da4d" cx="902.088" cy="-1102.55" rx="4.00002" ry="4.00002"/>
<polygon fill="#f7da4d" stroke="#f7da4d" points="792.502,-323.082 795.882,-312.65 791.956,-318.112 791.409,-313.142 791.409,-313.142 791.409,-313.142 791.956,-318.112 786.936,-313.634 792.502,-323.082 792.502,-323.082"/>
</g>
<!-- Comment&#45;&gt;User -->
<g id="edge26" class="edge"><title>Comment&#45;&gt;User</title>
<path fill="none" stroke="#522073" d="M1036.79,-1052.37C1063.3,-969.585 1096.01,-883.144 1125,-852 1138.28,-837.731 1153.76,-849.932 1165,-834 1171.03,-825.448 1189.32,-575.73 1200.64,-413.29"/>
<polygon fill="#522073" stroke="#522073" points="1036.78,-1052.4 1029.46,-1060.56 1035.27,-1057.16 1033.75,-1061.93 1033.75,-1061.93 1033.75,-1061.93 1035.27,-1057.16 1038.04,-1063.29 1036.78,-1052.4 1036.78,-1052.4"/>
<polygon fill="#522073" stroke="#522073" points="1200.65,-413.18 1205.83,-403.517 1201,-408.192 1201.34,-403.204 1201.34,-403.204 1201.34,-403.204 1201,-408.192 1196.85,-402.892 1200.65,-413.18 1200.65,-413.18"/>
<text text-anchor="middle" x="1158.5" y="-856.3" font-family="Times,serif" font-size="14.00">notify_users</text>
</g>
<!-- Content&#45;&gt;Notification -->
<g id="edge30" class="edge"><title>Content&#45;&gt;Notification</title>
<path fill="none" stroke="#7d96d7" d="M1014.49,-448.725C1014.42,-439.733 1014.89,-430.794 1016,-422 1031.9,-296.342 1016.24,-251.049 1087,-146 1099.68,-127.182 1117.59,-110.79 1135.83,-97.3012"/>
<ellipse fill="none" stroke="#7d96d7" cx="1014.6" cy="-452.997" rx="4" ry="4"/>
<polygon fill="#7d96d7" stroke="#7d96d7" points="1136.08,-97.1228 1146.83,-94.971 1140.15,-94.2161 1144.21,-91.3095 1144.21,-91.3095 1144.21,-91.3095 1140.15,-94.2161 1141.6,-87.6479 1136.08,-97.1228 1136.08,-97.1228"/>
</g>
<!-- Content&#45;&gt;Trigger -->
<g id="edge33" class="edge"><title>Content&#45;&gt;Trigger</title>
<path fill="none" stroke="#9f2009" d="M1162.66,-568.125C1213.6,-522.226 1278.33,-461.613 1332,-404 1351.9,-382.635 1372.45,-357.981 1389.97,-336.047"/>
<ellipse fill="none" stroke="#9f2009" cx="1159.49" cy="-570.974" rx="4.00002" ry="4.00002"/>
<polygon fill="#9f2009" stroke="#9f2009" points="1390.07,-335.931 1399.81,-330.9 1393.18,-332.016 1396.29,-328.101 1396.29,-328.101 1396.29,-328.101 1393.18,-332.016 1392.76,-325.302 1390.07,-335.931 1390.07,-335.931"/>
</g>
<!-- Content&#45;&gt;Redirection -->
<g id="edge32" class="edge"><title>Content&#45;&gt;Redirection</title>
<path fill="none" stroke="#de62a0" d="M990.67,-519.701C975.167,-498.19 958.872,-476.245 943,-456 905.76,-408.499 860.272,-356.649 828.048,-320.852"/>
<ellipse fill="none" stroke="#de62a0" cx="993.121" cy="-523.112" rx="4.00002" ry="4.00002"/>
<polygon fill="#de62a0" stroke="#de62a0" points="827.674,-320.437 824.315,-309.999 824.324,-316.726 820.974,-313.014 820.974,-313.014 820.974,-313.014 824.324,-316.726 817.634,-316.029 827.674,-320.437 827.674,-320.437"/>
</g>
<!-- Content&#45;&gt;User -->
<g id="edge31" class="edge"><title>Content&#45;&gt;User</title>
<path fill="none" stroke="#1fd795" d="M1108.1,-447.142C1110.83,-438.565 1113.79,-430.148 1117,-422 1118.28,-418.756 1119.63,-415.505 1121.05,-412.257"/>
<polygon fill="#1fd795" stroke="#1fd795" points="1108.05,-447.326 1100.81,-455.569 1106.58,-452.107 1105.12,-456.887 1105.12,-456.887 1105.12,-456.887 1106.58,-452.107 1109.42,-458.206 1108.05,-447.326 1108.05,-447.326"/>
<polygon fill="#1fd795" stroke="#1fd795" points="1121.07,-412.212 1129.3,-404.974 1123.14,-407.661 1125.21,-403.11 1125.21,-403.11 1125.21,-403.11 1123.14,-407.661 1121.11,-401.247 1121.07,-412.212 1121.07,-412.212"/>
<text text-anchor="middle" x="1150.5" y="-426.3" font-family="Times,serif" font-size="14.00">notify_users</text>
</g>
<!-- Theme -->
<g id="node20" class="node"><title>Theme</title>
<polygon fill="none" stroke="black" points="1819.5,-1642 1819.5,-1688 1874.5,-1688 1874.5,-1642 1819.5,-1642"/>
<text text-anchor="middle" x="1847" y="-1672.8" font-family="Times,serif" font-size="14.00">Theme</text>
<polyline fill="none" stroke="black" points="1819.5,-1665 1874.5,-1665 "/>
<text text-anchor="middle" x="1847" y="-1649.8" font-family="Times,serif" font-size="14.00"> </text>
</g>
<!-- BlogSweeper -->
<g id="node21" class="node"><title>BlogSweeper</title>
<polygon fill="none" stroke="black" points="1892.5,-1642 1892.5,-1688 1981.5,-1688 1981.5,-1642 1892.5,-1642"/>
<text text-anchor="middle" x="1937" y="-1672.8" font-family="Times,serif" font-size="14.00">BlogSweeper</text>
<polyline fill="none" stroke="black" points="1892.5,-1665 1981.5,-1665 "/>
<text text-anchor="middle" x="1937" y="-1649.8" font-family="Times,serif" font-size="14.00"> </text>
</g>
<!-- Category&#45;&gt;Categorization -->
<g id="edge35" class="edge"><title>Category&#45;&gt;Categorization</title>
<path fill="none" stroke="#51d661" d="M1944.84,-1158.95C1932.31,-1109.86 1916.23,-1046.86 1904.92,-1002.53"/>
<ellipse fill="none" stroke="#51d661" cx="1945.9" cy="-1163.07" rx="4.00001" ry="4.00001"/>
<polygon fill="#51d661" stroke="#51d661" points="1904.91,-1002.5 1906.8,-991.699 1903.67,-997.656 1902.44,-992.812 1902.44,-992.812 1902.44,-992.812 1903.67,-997.656 1898.08,-993.924 1904.91,-1002.5 1904.91,-1002.5"/>
</g>
<!-- Category&#45;&gt;Category -->
<g id="edge34" class="edge"><title>Category&#45;&gt;Category</title>
<path fill="none" stroke="#a108c7" d="M2027.35,-1267.13C2033.85,-1260.79 2038,-1250.09 2038,-1235 2038,-1221.15 2034.5,-1210.98 2028.89,-1204.51"/>
<ellipse fill="none" stroke="#a108c7" cx="2024.06" cy="-1269.42" rx="4.00002" ry="4.00002"/>
<polygon fill="#a108c7" stroke="#a108c7" points="2028.71,-1204.37 2023.52,-1194.72 2024.75,-1201.33 2020.78,-1198.29 2020.78,-1198.29 2020.78,-1198.29 2024.75,-1201.33 2018.04,-1201.86 2028.71,-1204.37 2028.71,-1204.37"/>
<text text-anchor="middle" x="2060.5" y="-1231.3" font-family="Times,serif" font-size="14.00">children</text>
</g>
<!-- User&#45;&gt;Notification -->
<g id="edge36" class="edge"><title>User&#45;&gt;Notification</title>
<path fill="none" stroke="#c6f0c2" d="M1210,-138.794C1210,-131.52 1210,-124.407 1210,-117.592"/>
<ellipse fill="none" stroke="#c6f0c2" cx="1210" cy="-142.924" rx="4" ry="4"/>
<polygon fill="#c6f0c2" stroke="#c6f0c2" points="1210,-117.149 1214.5,-107.149 1210,-112.149 1210,-107.149 1210,-107.149 1210,-107.149 1210,-112.149 1205.5,-107.15 1210,-117.149 1210,-117.149"/>
</g>
<!-- User&#45;&gt;Article -->
<g id="edge38" class="edge"><title>User&#45;&gt;Article</title>
<path fill="none" stroke="#882b7d" d="M1265.58,-410.95C1289.03,-479.53 1311,-564.897 1311,-644 1311,-1236 1311,-1236 1311,-1236 1311,-1493.57 1296.6,-1428.53 1268,-1458 1250.09,-1476.46 1232.29,-1458.99 1213,-1476 1212.73,-1476.24 1212.47,-1476.47 1212.2,-1476.71"/>
<ellipse fill="none" stroke="#882b7d" cx="1264.17" cy="-406.878" rx="4.00001" ry="4.00001"/>
<polygon fill="#882b7d" stroke="#882b7d" points="1211.96,-1476.94 1201.61,-1480.58 1208.34,-1480.39 1204.72,-1483.84 1204.72,-1483.84 1204.72,-1483.84 1208.34,-1480.39 1207.82,-1487.1 1211.96,-1476.94 1211.96,-1476.94"/>
</g>
<!-- User&#45;&gt;Content -->
<g id="edge37" class="edge"><title>User&#45;&gt;Content</title>
<path fill="none" stroke="#d71f50" d="M1088.14,-345.747C1062.3,-366.718 1038.48,-392.224 1024,-422 1020.11,-429.996 1017.31,-438.297 1015.42,-446.79"/>
<polygon fill="#d71f50" stroke="#d71f50" points="1088.36,-345.574 1099,-342.919 1092.28,-342.479 1096.21,-339.384 1096.21,-339.384 1096.21,-339.384 1092.28,-342.479 1093.43,-335.85 1088.36,-345.574 1088.36,-345.574"/>
<polygon fill="#d71f50" stroke="#d71f50" points="1015.39,-446.996 1009.2,-456.047 1014.51,-451.917 1013.63,-456.839 1013.63,-456.839 1013.63,-456.839 1014.51,-451.917 1018.06,-457.631 1015.39,-446.996 1015.39,-446.996"/>
<text text-anchor="middle" x="1066.5" y="-426.3" font-family="Times,serif" font-size="14.00">notify_contents</text>
</g>
<!-- WebNotifier -->
<g id="node25" class="node"><title>WebNotifier</title>
<polygon fill="none" stroke="black" points="2000,-1642 2000,-1688 2086,-1688 2086,-1642 2000,-1642"/>
<text text-anchor="middle" x="2043" y="-1672.8" font-family="Times,serif" font-size="14.00">WebNotifier</text>
<polyline fill="none" stroke="black" points="2000,-1665 2086,-1665 "/>
<text text-anchor="middle" x="2043" y="-1649.8" font-family="Times,serif" font-size="14.00"> </text>
</g>
<!-- Sidebar -->
<g id="node26" class="node"><title>Sidebar</title>
<path fill="none" stroke="black" d="M2116,-1612C2116,-1612 2238,-1612 2238,-1612 2244,-1612 2250,-1618 2250,-1624 2250,-1624 2250,-1706 2250,-1706 2250,-1712 2244,-1718 2238,-1718 2238,-1718 2116,-1718 2116,-1718 2110,-1718 2104,-1712 2104,-1706 2104,-1706 2104,-1624 2104,-1624 2104,-1618 2110,-1612 2116,-1612"/>
<text text-anchor="middle" x="2177" y="-1702.8" font-family="Times,serif" font-size="14.00">Sidebar</text>
<polyline fill="none" stroke="black" points="2104,-1695 2250,-1695 "/>
<text text-anchor="start" x="2112" y="-1679.8" font-family="Times,serif" font-size="14.00">id :integer</text>
<text text-anchor="start" x="2112" y="-1664.8" font-family="Times,serif" font-size="14.00">active_position :integer</text>
<text text-anchor="start" x="2112" y="-1649.8" font-family="Times,serif" font-size="14.00">config :text</text>
<text text-anchor="start" x="2112" y="-1634.8" font-family="Times,serif" font-size="14.00">staged_position :integer</text>
<text text-anchor="start" x="2112" y="-1619.8" font-family="Times,serif" font-size="14.00">type :string</text>
</g>
<!-- Page -->
<g id="node27" class="node"><title>Page</title>
<path fill="none" stroke="black" d="M1470.5,-1047C1470.5,-1047 1607.5,-1047 1607.5,-1047 1613.5,-1047 1619.5,-1053 1619.5,-1059 1619.5,-1059 1619.5,-1411 1619.5,-1411 1619.5,-1417 1613.5,-1423 1607.5,-1423 1607.5,-1423 1470.5,-1423 1470.5,-1423 1464.5,-1423 1458.5,-1417 1458.5,-1411 1458.5,-1411 1458.5,-1059 1458.5,-1059 1458.5,-1053 1464.5,-1047 1470.5,-1047"/>
<text text-anchor="middle" x="1539" y="-1407.8" font-family="Times,serif" font-size="14.00">Page</text>
<polyline fill="none" stroke="black" points="1458.5,-1400 1619.5,-1400 "/>
<text text-anchor="start" x="1466.5" y="-1384.8" font-family="Times,serif" font-size="14.00">id :integer</text>
<text text-anchor="start" x="1466.5" y="-1369.8" font-family="Times,serif" font-size="14.00">type :string</text>
<text text-anchor="start" x="1466.5" y="-1354.8" font-family="Times,serif" font-size="14.00">title :string</text>
<text text-anchor="start" x="1466.5" y="-1339.8" font-family="Times,serif" font-size="14.00">author :string</text>
<text text-anchor="start" x="1466.5" y="-1324.8" font-family="Times,serif" font-size="14.00">body :text</text>
<text text-anchor="start" x="1466.5" y="-1309.8" font-family="Times,serif" font-size="14.00">extended :text</text>
<text text-anchor="start" x="1466.5" y="-1294.8" font-family="Times,serif" font-size="14.00">excerpt :text</text>
<text text-anchor="start" x="1466.5" y="-1279.8" font-family="Times,serif" font-size="14.00">created_at :datetime</text>
<text text-anchor="start" x="1466.5" y="-1264.8" font-family="Times,serif" font-size="14.00">updated_at :datetime</text>
<text text-anchor="start" x="1466.5" y="-1249.8" font-family="Times,serif" font-size="14.00">user_id :integer</text>
<text text-anchor="start" x="1466.5" y="-1234.8" font-family="Times,serif" font-size="14.00">permalink :string</text>
<text text-anchor="start" x="1466.5" y="-1219.8" font-family="Times,serif" font-size="14.00">guid :string</text>
<text text-anchor="start" x="1466.5" y="-1204.8" font-family="Times,serif" font-size="14.00">text_filter_id :integer</text>
<text text-anchor="start" x="1466.5" y="-1189.8" font-family="Times,serif" font-size="14.00">whiteboard :text</text>
<text text-anchor="start" x="1466.5" y="-1174.8" font-family="Times,serif" font-size="14.00">name :string</text>
<text text-anchor="start" x="1466.5" y="-1159.8" font-family="Times,serif" font-size="14.00">published :boolean</text>
<text text-anchor="start" x="1466.5" y="-1144.8" font-family="Times,serif" font-size="14.00">allow_pings :boolean</text>
<text text-anchor="start" x="1466.5" y="-1129.8" font-family="Times,serif" font-size="14.00">allow_comments :boolean</text>
<text text-anchor="start" x="1466.5" y="-1114.8" font-family="Times,serif" font-size="14.00">published_at :datetime</text>
<text text-anchor="start" x="1466.5" y="-1099.8" font-family="Times,serif" font-size="14.00">state :string</text>
<text text-anchor="start" x="1466.5" y="-1084.8" font-family="Times,serif" font-size="14.00">parent_id :integer</text>
<text text-anchor="start" x="1466.5" y="-1069.8" font-family="Times,serif" font-size="14.00">settings :text</text>
<text text-anchor="start" x="1466.5" y="-1054.8" font-family="Times,serif" font-size="14.00">post_type :string</text>
</g>
<!-- Page&#45;&gt;Redirect -->
<g id="edge42" class="edge"><title>Page&#45;&gt;Redirect</title>
<path fill="none" stroke="#0a1aac" d="M1450.09,-1164.75C1395.71,-1125.23 1323.3,-1077.44 1253,-1046 1156.15,-1002.68 1036.16,-975.223 959.82,-960.724"/>
<polygon fill="#0a1aac" stroke="#0a1aac" points="1450.25,-1164.87 1455.66,-1174.4 1454.28,-1167.82 1458.32,-1170.77 1458.32,-1170.77 1458.32,-1170.77 1454.28,-1167.82 1460.98,-1167.14 1450.25,-1164.87 1450.25,-1164.87"/>
<polygon fill="#0a1aac" stroke="#0a1aac" points="959.638,-960.69 950.637,-954.426 954.723,-959.77 949.809,-958.849 949.809,-958.849 949.809,-958.849 954.723,-959.77 948.98,-963.272 959.638,-960.69 959.638,-960.69"/>
</g>
<!-- Page&#45;&gt;Notification -->
<g id="edge39" class="edge"><title>Page&#45;&gt;Notification</title>
<path fill="none" stroke="#ef2db0" d="M1603.07,-1038.93C1666.75,-805.929 1731.84,-414.087 1555,-146 1525.49,-101.269 1378.29,-75.4349 1285.95,-63.3865"/>
<ellipse fill="none" stroke="#ef2db0" cx="1601.96" cy="-1042.95" rx="4.00001" ry="4.00001"/>
<polygon fill="#ef2db0" stroke="#ef2db0" points="1285.73,-63.3578 1276.38,-57.6257 1280.77,-62.7236 1275.81,-62.0893 1275.81,-62.0893 1275.81,-62.0893 1280.77,-62.7236 1275.24,-66.553 1285.73,-63.3578 1285.73,-63.3578"/>
</g>
<!-- Page&#45;&gt;Trigger -->
<g id="edge43" class="edge"><title>Page&#45;&gt;Trigger</title>
<path fill="none" stroke="#771ce3" d="M1570.66,-1038.81C1578.23,-983.73 1585.22,-923.649 1589,-868 1589.48,-860.905 1591.42,-858.686 1589,-852 1585.45,-842.208 1578.65,-843.317 1574,-834 1489.98,-665.687 1524,-604.153 1477,-422 1469.86,-394.309 1461.39,-363.831 1454.02,-337.918"/>
<ellipse fill="none" stroke="#771ce3" cx="1570.09" cy="-1042.94" rx="4.00001" ry="4.00001"/>
<polygon fill="#771ce3" stroke="#771ce3" points="1453.99,-337.84 1455.57,-326.988 1452.62,-333.032 1451.25,-328.225 1451.25,-328.225 1451.25,-328.225 1452.62,-333.032 1446.92,-329.461 1453.99,-337.84 1453.99,-337.84"/>
</g>
<!-- Page&#45;&gt;Redirection -->
<g id="edge41" class="edge"><title>Page&#45;&gt;Redirection</title>
<path fill="none" stroke="#eeb2a4" d="M1453.85,-1095.18C1408.9,-1027.91 1350.05,-948.395 1287,-886 1268.42,-867.611 1263.61,-860.809 1239,-852 1185.93,-833.009 1029.5,-869.84 986,-834 851.7,-723.354 948.369,-617.666 884,-456 865.055,-408.418 836.655,-357.298 815.475,-321.74"/>
<ellipse fill="none" stroke="#eeb2a4" cx="1456.21" cy="-1098.74" rx="4.00002" ry="4.00002"/>
<polygon fill="#eeb2a4" stroke="#eeb2a4" points="815.403,-321.62 814.114,-310.73 812.83,-317.333 810.256,-313.047 810.256,-313.047 810.256,-313.047 812.83,-317.333 806.398,-315.363 815.403,-321.62 815.403,-321.62"/>
</g>
<!-- Page&#45;&gt;User -->
<g id="edge40" class="edge"><title>Page&#45;&gt;User</title>
<path fill="none" stroke="#98dd55" d="M1517.25,-1037.02C1516.53,-1033.31 1515.77,-1029.64 1515,-1026 1456.39,-750.759 1456.44,-670.831 1325,-422 1323.24,-418.666 1321.4,-415.331 1319.49,-412.004"/>
<polygon fill="#98dd55" stroke="#98dd55" points="1517.26,-1037.09 1514.7,-1047.75 1518.2,-1042 1519.13,-1046.91 1519.13,-1046.91 1519.13,-1046.91 1518.2,-1042 1523.55,-1046.07 1517.26,-1037.09 1517.26,-1037.09"/>
<polygon fill="#98dd55" stroke="#98dd55" points="1319.38,-411.823 1318.16,-400.925 1316.84,-407.52 1314.29,-403.218 1314.29,-403.218 1314.29,-403.218 1316.84,-407.52 1310.42,-405.511 1319.38,-411.823 1319.38,-411.823"/>
<text text-anchor="middle" x="1516.5" y="-856.3" font-family="Times,serif" font-size="14.00">notify_users</text>
</g>
<!-- Feedback&#45;&gt;Redirect -->
<g id="edge47" class="edge"><title>Feedback&#45;&gt;Redirect</title>
<path fill="none" stroke="#9609f1" d="M1081.02,-1053.62C1078.74,-1051.01 1076.39,-1048.47 1074,-1046 1042.3,-1013.35 997.385,-989.492 959.181,-973.498"/>
<polygon fill="#9609f1" stroke="#9609f1" points="1081.31,-1053.97 1084.27,-1064.52 1084.52,-1057.8 1087.73,-1061.64 1087.73,-1061.64 1087.73,-1061.64 1084.52,-1057.8 1091.18,-1058.75 1081.31,-1053.97 1081.31,-1053.97"/>
<polygon fill="#9609f1" stroke="#9609f1" points="958.884,-973.377 951.324,-965.433 954.254,-971.488 949.625,-969.6 949.625,-969.6 949.625,-969.6 954.254,-971.488 947.925,-973.767 958.884,-973.377 958.884,-973.377"/>
</g>
<!-- Feedback&#45;&gt;Notification -->
<g id="edge44" class="edge"><title>Feedback&#45;&gt;Notification</title>
<path fill="none" stroke="#42fdf9" d="M1251.44,-1185.55C1314.76,-1145.94 1397.29,-1084.14 1445,-1008 1514.46,-897.137 1520.68,-497.13 1525,-404 1530.32,-289.457 1593.92,-237.645 1525,-146 1496.23,-107.747 1369.34,-80.4829 1285.64,-66.2773"/>
<ellipse fill="none" stroke="#42fdf9" cx="1248" cy="-1187.68" rx="4.00002" ry="4.00002"/>
<polygon fill="#42fdf9" stroke="#42fdf9" points="1285.52,-66.2574 1276.4,-60.1712 1280.59,-65.4336 1275.66,-64.6097 1275.66,-64.6097 1275.66,-64.6097 1280.59,-65.4336 1274.92,-69.0482 1285.52,-66.2574 1285.52,-66.2574"/>
</g>
<!-- Feedback&#45;&gt;Trigger -->
<g id="edge48" class="edge"><title>Feedback&#45;&gt;Trigger</title>
<path fill="none" stroke="#db2e86" d="M1251.53,-1183.26C1304.75,-1147.26 1368.52,-1093.74 1401,-1028 1515.69,-795.894 1473.85,-472.732 1449.04,-338.403"/>
<ellipse fill="none" stroke="#db2e86" cx="1248.09" cy="-1185.56" rx="4.00002" ry="4.00002"/>
<polygon fill="#db2e86" stroke="#db2e86" points="1448.99,-338.121 1451.57,-327.462 1448.07,-333.207 1447.14,-328.293 1447.14,-328.293 1447.14,-328.293 1448.07,-333.207 1442.72,-329.125 1448.99,-338.121 1448.99,-338.121"/>
</g>
<!-- Feedback&#45;&gt;Redirection -->
<g id="edge46" class="edge"><title>Feedback&#45;&gt;Redirection</title>
<path fill="none" stroke="#f51c7c" d="M1143.63,-1053.57C1126.13,-980.606 1093.76,-901.972 1034,-852 992.966,-817.686 954.222,-870.372 915,-834 895.953,-816.337 822.633,-455.297 796.401,-323.568"/>
<ellipse fill="none" stroke="#f51c7c" cx="1144.58" cy="-1057.63" rx="4.00001" ry="4.00001"/>
<polygon fill="#f51c7c" stroke="#f51c7c" points="796.326,-323.189 798.789,-312.504 795.351,-318.285 794.375,-313.381 794.375,-313.381 794.375,-313.381 795.351,-318.285 789.962,-314.259 796.326,-323.189 796.326,-323.189"/>
</g>
<!-- Feedback&#45;&gt;User -->
<g id="edge45" class="edge"><title>Feedback&#45;&gt;User</title>
<path fill="none" stroke="#94afa2" d="M1179.65,-1051.6C1184.25,-998.226 1189.31,-939.774 1194,-886 1195.32,-870.888 1195.5,-867.095 1197,-852 1197.8,-843.99 1198.45,-842.031 1199,-834 1210.95,-658.35 1206.23,-614.034 1209,-438 1209.13,-430.003 1209.24,-421.783 1209.33,-413.49"/>
<polygon fill="#94afa2" stroke="#94afa2" points="1179.63,-1051.89 1174.29,-1061.47 1179.2,-1056.87 1178.77,-1061.86 1178.77,-1061.86 1178.77,-1061.86 1179.2,-1056.87 1183.25,-1062.24 1179.63,-1051.89 1179.63,-1051.89"/>
<polygon fill="#94afa2" stroke="#94afa2" points="1209.33,-413.346 1213.94,-403.395 1209.39,-408.346 1209.44,-403.346 1209.44,-403.346 1209.44,-403.346 1209.39,-408.346 1204.94,-403.297 1209.33,-413.346 1209.33,-413.346"/>
<text text-anchor="middle" x="1230.5" y="-856.3" font-family="Times,serif" font-size="14.00">notify_users</text>
</g>
<!-- Blog -->
<g id="node29" class="node"><title>Blog</title>
<path fill="none" stroke="black" d="M2280.5,-1627C2280.5,-1627 2357.5,-1627 2357.5,-1627 2363.5,-1627 2369.5,-1633 2369.5,-1639 2369.5,-1639 2369.5,-1691 2369.5,-1691 2369.5,-1697 2363.5,-1703 2357.5,-1703 2357.5,-1703 2280.5,-1703 2280.5,-1703 2274.5,-1703 2268.5,-1697 2268.5,-1691 2268.5,-1691 2268.5,-1639 2268.5,-1639 2268.5,-1633 2274.5,-1627 2280.5,-1627"/>
<text text-anchor="middle" x="2319" y="-1687.8" font-family="Times,serif" font-size="14.00">Blog</text>
<polyline fill="none" stroke="black" points="2268.5,-1680 2369.5,-1680 "/>
<text text-anchor="start" x="2276.5" y="-1664.8" font-family="Times,serif" font-size="14.00">id :integer</text>
<text text-anchor="start" x="2276.5" y="-1649.8" font-family="Times,serif" font-size="14.00">settings :text</text>
<text text-anchor="start" x="2276.5" y="-1634.8" font-family="Times,serif" font-size="14.00">base_url :string</text>
</g>
<!-- TextFilter -->
<g id="node30" class="node"><title>TextFilter</title>
<path fill="none" stroke="black" d="M2399.5,-1604.5C2399.5,-1604.5 2490.5,-1604.5 2490.5,-1604.5 2496.5,-1604.5 2502.5,-1610.5 2502.5,-1616.5 2502.5,-1616.5 2502.5,-1713.5 2502.5,-1713.5 2502.5,-1719.5 2496.5,-1725.5 2490.5,-1725.5 2490.5,-1725.5 2399.5,-1725.5 2399.5,-1725.5 2393.5,-1725.5 2387.5,-1719.5 2387.5,-1713.5 2387.5,-1713.5 2387.5,-1616.5 2387.5,-1616.5 2387.5,-1610.5 2393.5,-1604.5 2399.5,-1604.5"/>
<text text-anchor="middle" x="2445" y="-1710.3" font-family="Times,serif" font-size="14.00">TextFilter</text>
<polyline fill="none" stroke="black" points="2387.5,-1702.5 2502.5,-1702.5 "/>
<text text-anchor="start" x="2395.5" y="-1687.3" font-family="Times,serif" font-size="14.00">id :integer</text>
<text text-anchor="start" x="2395.5" y="-1672.3" font-family="Times,serif" font-size="14.00">name :string</text>
<text text-anchor="start" x="2395.5" y="-1657.3" font-family="Times,serif" font-size="14.00">description :string</text>
<text text-anchor="start" x="2395.5" y="-1642.3" font-family="Times,serif" font-size="14.00">markup :string</text>
<text text-anchor="start" x="2395.5" y="-1627.3" font-family="Times,serif" font-size="14.00">filters :text</text>
<text text-anchor="start" x="2395.5" y="-1612.3" font-family="Times,serif" font-size="14.00">params :text</text>
</g>
</g>
</svg>
